<?xml version="1.0" encoding="UTF-8"?><svg id="Layer_1" xmlns="http://www.w3.org/2000/svg" viewBox="0 0 631.2 249.4"><defs><style>.cls-1{fill:#fed925;}</style></defs><path d="M599.31,93.73c0-.58,.05-1.16,.15-1.71,.2-.56,.44-1.1,.62-1.5,.38-.52,.71-.9,1.06-1.35,.35-.36,.84-.67,1.24-.95,.52-.28,1.05-.53,1.61-.62,.45-.2,1.02-.25,1.61-.25s1.15,.05,1.71,.25c.56,.09,1.1,.34,1.5,.62,.51,.29,1.01,.6,1.35,.95,.35,.46,.67,.84,.95,1.35,.29,.4,.53,.94,.63,1.5,.2,.56,.25,1.13,.25,1.71s-.04,1.16-.25,1.72c-.1,.56-.34,.98-.63,1.5-.28,.52-.6,.89-.95,1.25-.34,.46-.84,.77-1.35,1.06-.4,.28-.94,.42-1.5,.62-.56,.09-1.12,.26-1.71,.26-.88,0-1.61-.22-2.43-.53-.81-.32-1.44-.82-2.03-1.4-.59-.58-1.08-1.22-1.41-2.03-.32-.7-.42-1.55-.42-2.43m.89,0c0,.69,.09,1.46,.38,2.1,.29,.64,.64,1.22,1.17,1.75,.53,.53,1.11,.88,1.75,1.17,.63,.29,1.41,.49,2.1,.49,.55,0,1.07-.15,1.48-.24,.51-.09,1.02-.32,1.38-.59l-2.96-4.04h-1.18v3.39h-1.14v-8.06h2.9c.31,0,.6,.04,.89,.23,.29,.08,.56,.29,.68,.53,.24,.13,.46,.4,.53,.68,.19,.28,.22,.58,.22,.9,0,.27-.03,.54-.18,.79-.05,.26-.12,.4-.32,.63-.08,.23-.3,.33-.43,.53-.23,.09-.48,.27-.73,.31l2.59,3.49c.56-.54,.94-1.13,1.25-1.78,.42-.76,.52-1.45,.52-2.27s-.1-1.46-.39-2.1c-.29-.74-.74-1.32-1.17-1.75-.53-.53-1.11-.88-1.75-1.17-.74-.29-1.41-.49-2.21-.49-.69,0-1.47,.2-2.1,.49-.64,.29-1.22,.64-1.75,1.17-.53,.42-.88,1.01-1.17,1.75-.29,.64-.38,1.31-.38,2.1m3.96-2.9v2.42h1.76c.21,0,.42-.02,.52-.06,.2-.04,.28-.1,.46-.27,.07-.07,.12-.26,.16-.35,.15-.2,.17-.31,.17-.52,0-.1-.02-.31-.17-.41-.04-.2-.09-.29-.16-.46-.18-.07-.26-.13-.46-.28-.1-.04-.31-.06-.52-.06h-1.76Z"/><path d="M242.89,191.65c-12.88,0-23.58-4.21-32.04-12.73-8.45-8.63-12.62-19.16-12.62-31.71s4.17-23.09,12.62-31.61c8.45-8.63,19.16-12.84,32.04-12.84s23.39,4.21,31.88,12.84c8.48,8.52,12.78,19.06,12.78,31.61s-4.3,23.08-12.78,31.71c-8.49,8.52-19.08,12.73-31.88,12.73m0-21.9c5.83,0,10.57-2.12,14.34-6.47,3.78-4.35,5.72-9.67,5.72-16.07s-1.94-11.74-5.72-16.13c-3.77-4.39-8.52-6.63-14.34-6.63s-10.77,2.23-14.5,6.47c-3.64,4.35-5.57,9.82-5.57,16.29s1.93,11.92,5.57,16.12c3.73,4.31,8.6,6.42,14.5,6.42"/><polygon class="cls-1" points="46.34 99.54 84.64 71.33 129.96 77.98 145.09 132.8 107.42 162.62 58.38 154.25 46.34 99.54"/><path d="M138.98,72.74c15.82,0,33.24-12.81,38.82-28.58,5.57-15.77-2.69-28.57-18.62-28.57s-33.13,12.81-38.7,28.57c-5.68,15.77,2.69,28.58,18.5,28.58m-7.05,6.1l-.6-1.71-47.25-6.81-35.95,26.15-3.43,2.53,2.21,9.27c-7.2,3.95-27.74,16.78-30.07,31.4,0,.14,0,.18-.12,.22-.05,.53-.09,1.07-.11,1.5,0,.22,0,.45-.01,.57,0,.34,0,.78,0,1.13,0,.28,.02,.56,.03,.85,.01,.27,.04,.53,.06,.68,.19,1.03,.33,1.95,.72,2.87,3.65,11.42,22.63,9.03,39.54,4.31l.76,2.96,46.49,8.69,3.88-.8,37.83-28.62-6.08-24.46c16.06,2.52,18.06,14.32,15.73,28.35-4.1,24.79-33.91,50.06-67.73,59.99-1.52,.4-2.98-1.02-2.6-2.54,1.1-3.85,3.5-12.2,9.06-29.78-7.94-1.21-28.88-6.1-28.88-6.1l-20.48,74.32s45.79-5.5,82.34-22.74c36.55-17.25,61.91-47.02,64.47-78.25,3.76-46.31-24.72-57.82-59.83-53.98m-47.21-5.84l44.63,6.47-14.11,9.64-42.6-7.05,12.08-9.07Zm-20.25,14.61l42.62,6.73-14.28,10.74-42.86-6.7,14.52-10.77Zm-15.21,54.63c-.02-.33-.01-.65,0-.96,.01-.25,.03-.5,.06-.75,0-.04,.01-.09,.03-.14,.57-2.26,2.33-3.81,3.83-4.88l2.29,9.71c-3.56-.16-6.11-1.03-6.21-2.98m10.57,10.24l-.32-1.46c13.72-4.08,25.4-9.33,25.4-9.33,0,0-16.11,3.71-26.77,3.74l-2.61-11.16c.14,0,.16-.01,.16-.01l-6.37-27.32s-.03,.01-.04,.01l-1.38-5.68,43.82,6.58,12.47,52.97-44.37-8.34Zm83.15-19.53l-35.91,27.3-12.44-52.73,15.35-11.21,3.34,12,2.89-5.22,4.29,.52-2.95-12.5,12.86-8.96,12.57,50.8Z"/><path d="M299.47,213.21l-3.81,14.27h-2.89l3.81-14.27h2.89Zm-2.19-4.79c.16-.28,.23-.55,.45-.81,.1-.26,.33-.5,.58-.61,.15-.22,.41-.31,.69-.48,.27-.06,.55-.1,.83-.1s.54,.04,.67,.1c.24,.17,.46,.26,.54,.48,.19,.11,.24,.35,.26,.61,.03,.26,.02,.53-.03,.81-.04,.27-.23,.44-.33,.69-.21,.26-.45,.5-.59,.61-.25,.22-.51,.31-.79,.48-.28,.06-.55,.09-.83,.09s-.43-.03-.67-.09c-.24-.17-.35-.26-.54-.48-.08-.11-.24-.35-.27-.61-.02-.26-.01-.42,.03-.69"/><path d="M310.36,212.08c-.29,1.11-.33,2.18-.23,3.09,.2,.92,.52,1.76,1.06,2.41,.54,.77,1.18,1.23,2.03,1.7,.85,.37,1.78,.6,2.88,.6,.75,0,1.58-.07,2.41-.34,.83-.26,1.54-.58,2.35-1.07,.37-.26,.86-.34,1.24-.34,.44,0,.73,.03,.87,.22,.25,.07,.48,.29,.58,.43l.47,.55c-.62,.54-1.36,1.06-2.01,1.43-.66,.37-1.43,.82-2.12,1.11-.79,.29-1.58,.43-2.28,.64-.81,.21-1.51,.26-2.31,.26-1.47,0-2.83-.28-3.88-.85-1.15-.57-2.16-1.37-2.82-2.3-.66-.93-1.16-2.07-1.41-3.32-.13-1.35-.08-2.76,.28-4.23,.27-.94,.62-1.86,1.15-2.76,.53-.89,1.12-1.75,1.76-2.58,.64-.82,1.44-1.49,2.27-2.11,.84-.73,1.71-1.19,2.61-1.7,.9-.51,1.81-.85,2.75-1.11,1.05-.27,1.99-.34,2.92-.34,.81,0,1.6,.05,2.24,.26,.65,.1,1.26,.35,1.84,.64,.59,.29,1.13,.62,1.65,1.1,.4,.37,.88,.89,1.2,1.43l-.65,.44c-.29,.25-.58,.47-.87,.54-.29,.19-.6,.22-1.03,.22-.38,0-.72-.18-1.01-.35-.55-.49-1.14-.81-1.79-1.07-.75-.26-1.44-.34-2.28-.34-1.11,0-2.2,.23-3.19,.6-1.09,.36-2.03,.93-2.91,1.7-.89,.66-1.7,1.5-2.33,2.42-.63,.91-1.15,1.98-1.44,2.99"/><path d="M330.3,214.92c.4-1.11,.81-2.07,1.45-3,.75-1.03,1.45-1.88,2.45-2.54,.9-.67,1.84-1.24,2.94-1.71,.99-.36,2.1-.6,3.21-.6,1,0,2.04,.24,2.79,.6,.85,.48,1.61,1.05,2.15,1.71,.44,.66,.76,1.51,.97,2.54,.2,.93,.05,1.89-.23,3-.29,1.11-.7,2.08-1.44,3-.64,1.03-1.46,1.88-2.35,2.55-.89,.66-1.84,1.23-2.93,1.71-1,.36-2.11,.6-3.22,.6-1,0-2.04-.24-2.89-.6-.86-.48-1.5-1.05-2.05-1.71-.43-.67-.87-1.52-.96-2.55-.2-.92-.05-1.89,.12-3m2.85,0c-.12,.65-.25,1.39-.08,1.99,.06,.6,.31,1.15,.63,1.55,.32,.5,.81,.84,1.25,1.12,.56,.27,1.16,.36,1.93,.36,.66,0,1.41-.08,2.06-.36,.64-.28,1.26-.61,1.84-1.12,.57-.39,1.11-.95,1.6-1.55,.38-.6,.68-1.34,.91-1.99,.12-.65,.14-1.39,.08-1.99-.06-.6-.32-1.15-.63-1.55-.32-.5-.8-.84-1.36-1.12-.44-.27-1.16-.36-1.81-.36s-1.42,.08-2.06,.36c-.64,.28-1.36,.61-1.94,1.12-.58,.39-1.01,.95-1.49,1.55-.38,.6-.68,1.34-.9,1.99"/><path d="M356.69,207.3c.04,.07,.06,.26,.08,.32,0,.07,.02,.26,.03,.35,0,.2-.01,.3-.04,.52l-.29,1.1c.28-.43,.59-.75,.95-1.05,.46-.29,.84-.57,1.33-.71,.39-.25,.9-.47,1.32-.55,.52-.19,1.03-.23,1.43-.23,.82,0,1.49,.2,2.2,.48l-.56,1.21c-.23,.37-.5,.67-.82,.93-.31,.25-.66,.32-1.12,.32-.03,0-.05,0-.05,0-.01,0-.02,0-.04,0-.02,0-.04,0-.18,0-.03,0-.08,0-.16,0-.58,0-1.16,.05-1.73,.27-.57,.21-1.12,.35-1.62,.63-.4,.28-.87,.58-1.19,.91-.32,.43-.57,.76-.65,1.09l-2.61,9.66h-2.89l4.09-15.23h2.5Z"/><path d="M370.85,207.3c.14,.07,.16,.26,.18,.32,.02,.07,.03,.26,.03,.35,0,.2,0,.3-.04,.52l-.29,1.1c.28-.43,.59-.75,.95-1.05,.35-.29,.83-.57,1.22-.71,.5-.25,1.01-.47,1.42-.55,.52-.19,1.04-.23,1.44-.23,.82,0,1.48,.2,2.09,.48l-.45,1.21c-.23,.37-.5,.67-.82,.93-.32,.25-.77,.32-1.12,.32-.03,0-.05,0-.06,0,0,0-.02,0-.03,0-.01,0-.15,0-.18,0-.03,0-.08,0-.27,0-.58,0-1.16,.05-1.62,.27-.57,.21-1.11,.35-1.62,.63-.4,.28-.87,.58-1.18,.91-.33,.43-.57,.76-.66,1.09l-2.6,9.66h-2.89l4.08-15.23h2.41Z"/><path d="M395.09,213.67c-.06,.32-.16,.62-.39,.9-.23,.27-.49,.42-.64,.65-.26,.22-.52,.32-.8,.49-.28,.06-.54,.09-.67,.09h-10.68c-.05,.59-.02,1.15,.19,1.68,.1,.43,.38,.92,.7,1.26,.32,.35,.81,.64,1.34,.88,.43,.24,.99,.31,1.59,.31,.49,0,.88-.03,1.38-.1,.39-.18,.88-.28,1.26-.52,.24-.07,.49-.22,.72-.25,.12-.03,.37-.05,.61-.05,.3,0,.58,.04,.72,.22,.25,.07,.47,.29,.58,.43l.47,.57c-.91,.81-1.99,1.41-3.11,1.91-1.01,.39-2.15,.64-3.3,.64s-2.04-.24-2.89-.6c-.86-.48-1.51-1.05-2.05-1.71-.55-.67-.87-1.52-1.07-2.55-.1-.92-.06-1.89,.23-3,.29-1.11,.8-2.07,1.45-3,.63-1.03,1.45-1.88,2.34-2.54,.89-.67,1.95-1.24,2.94-1.71,1.1-.36,2.1-.6,3.21-.6,.89,0,1.73,.2,2.53,.5,.68,.3,1.3,.66,1.85,1.21,.55,.55,.91,1.16,1.2,1.82,.28,.78,.48,1.48,.48,2.34,0,.18-.01,.25-.04,.32-.03,.18-.14,.25-.15,.43m-11.38-.72h8.63c-.15-.39-.24-.87-.48-1.23-.13-.35-.41-.66-.72-.95-.43-.28-.77-.53-1.16-.73-.5-.1-1.02-.15-1.45-.15-.58,0-1.15,.05-1.72,.27-.58,.12-1.13,.38-1.67,.69-.43,.31-.94,.76-1.31,1.15-.49,.49-.82,.9-1.12,1.45,.07-.07,.26-.24,.39-.31,.22-.07,.46-.21,.61-.21"/><path d="M413.13,210.01c.32-.44,.67-.94,1.17-1.28,.51-.45,.92-.76,1.46-1.02,.55-.15,1.09-.37,1.54-.44,.55-.18,1.1-.22,1.63-.22,.91,0,1.7,.23,2.15,.58,.57,.35,1.03,.89,1.28,1.51,.15,.73,.32,1.4,.31,2.25-.13,.84-.21,1.69-.47,2.56l-2.32,8.58h-2.93l2.32-8.57c.18-.48,.24-.87,.28-1.39,.04-.52,.04-.9,0-1.37-.06-.36-.26-.67-.52-.95-.15-.27-.6-.36-1.14-.36-.42,0-.94,.04-1.35,.13-.52,.19-1.01,.43-1.37,.58-.36,.26-.8,.55-1.09,.85-.3,.3-.42,.63-.6,1.06l-2.68,10.02h-2.92l2.31-8.57c.07-.48,.23-.87,.28-1.39,.04-.52,.04-.9-.01-1.37-.04-.36-.25-.67-.51-.95-.26-.27-.61-.36-1.14-.36-.42,0-.94,.04-1.46,.13-.41,.19-.9,.43-1.26,.58-.47,.26-.8,.55-1.09,.85-.3,.3-.42,.63-.6,1.06l-2.67,10.02h-2.9l4.09-15.23h2.41c.14,.07,.17,.26,.18,.32,.02,.07,.03,.26,.03,.35,0,.2,0,.3-.04,.52l-.21,.6c.28-.32,.57-.63,.9-.89,.44-.27,.78-.52,1.14-.62,.46-.21,.83-.29,1.2-.34,.48-.16,.85-.19,1.32-.19,.6,0,1.02,.04,1.5,.23,.37,.08,.68,.32,.95,.59,.27,.27,.51,.57,.58,.91,.18,.34,.23,.82,.24,1.22"/><path d="M427.7,214.92c.3-1.11,.81-2.07,1.45-3,.64-1.03,1.45-1.88,2.35-2.54,.89-.67,1.83-1.24,2.93-1.71,1.11-.36,2.11-.6,3.21-.6s2.05,.24,2.9,.6c.86,.48,1.51,1.05,2.04,1.71,.55,.66,.86,1.51,.97,2.54,.21,.93,.17,1.89-.12,3-.29,1.11-.81,2.08-1.45,3-.74,1.03-1.46,1.88-2.35,2.55-.89,.66-1.94,1.23-2.94,1.71-1.1,.36-2.21,.6-3.21,.6-1.11,0-2.03-.24-2.89-.6-.85-.48-1.61-1.05-2.05-1.71-.54-.67-.86-1.52-1.07-2.55-.11-.92-.06-1.89,.23-3m2.85,0c-.23,.65-.25,1.39-.19,1.99,.06,.6,.32,1.15,.63,1.55,.32,.5,.81,.84,1.37,1.12,.56,.27,1.16,.36,1.81,.36,.77,0,1.42-.08,2.06-.36,.75-.28,1.37-.61,1.95-1.12,.58-.39,1-.95,1.49-1.55,.38-.6,.68-1.34,.91-1.99,.22-.65,.25-1.39,.07-1.99-.07-.6-.31-1.15-.63-1.55-.32-.5-.7-.84-1.25-1.12-.55-.27-1.16-.36-1.92-.36-.66,0-1.31,.08-2.06,.36-.64,.28-1.25,.61-1.84,1.12-.58,.39-1.12,.95-1.49,1.55-.49,.6-.79,1.34-.9,1.99"/><path d="M447.88,219.28c.24-.06,.49-.22,.62-.26,.24-.04,.47-.06,.59-.06,.26,0,.52,.03,.75,.09,.12,.17,.38,.27,.65,.52,.22,.09,.36,.27,.62,.32,.26,.04,.53,.06,.81,.06,.3,0,.61-.03,.91-.09,.31-.06,.61-.25,.9-.37,.28-.22,.55-.47,.79-.74,.14-.27,.34-.57,.4-.9,.15-.28,.17-.53,.14-.65-.12-.23-.18-.45-.29-.55-.2-.21-.46-.31-.76-.51-.3-.09-.65-.3-1.15-.41-.41-.23-.92-.47-1.43-.62-.39-.26-.85-.54-1.16-.86-.31-.43-.44-.8-.63-1.33-.08-.41-.06-.99,.17-1.75,.1-.59,.38-1.15,.75-1.58,.47-.53,.88-1.02,1.44-1.37,.55-.34,1.13-.63,1.74-.87,.61-.25,1.2-.31,1.78-.31s1.14,.06,1.62,.31c.38,.24,.71,.5,1,.78,.28,.28,.53,.44,.61,.7,.2,.26,.25,.46,.28,.5l-.75,.58c-.53,.33-1.08,.55-1.64,.55-.23,0-.35-.03-.58-.19-.23-.05-.37-.12-.64-.32-.21-.06-.33-.09-.58-.09-.35,0-.77,.04-.95,.1-.28,.07-.53,.25-.76,.35-.23,.21-.32,.31-.38,.51-.18,.21-.21,.28-.23,.35-.05,.29-.05,.54,.01,.77,.06,.12,.26,.33,.49,.42,.13,.19,.38,.27,.66,.45,.28,.07,.56,.13,.84,.3,.55,.12,.97,.37,1.49,.64,.4,.27,.88,.57,1.18,.91,.31,.45,.55,.84,.62,1.38,.18,.54,.16,1.15-.07,1.81-.23,.64-.52,1.35-.89,1.93-.47,.59-.9,1.02-1.48,1.52-.58,.39-1.32,.84-1.98,1.11-.66,.16-1.45,.35-2.26,.35-.43,0-.96-.04-1.46-.24-.41-.09-.88-.33-1.21-.61-.34-.28-.64-.59-.91-.94-.26-.46-.49-.84-.56-1.36l.89-.36Z"/><path d="M481.15,207.3c.03,.07,.05,.26,.07,.32,.13,.07,.13,.26,.15,.35,0,.21-.01,.31-.15,.52l-.1,.59c.06-.27,.27-.53,.4-.66,.25-.24,.5-.46,.78-.55,.28-.2,.58-.28,.88-.35,.3-.17,.61-.23,.91-.26,.3-.15,.58-.18,.86-.2,.27-.02,.53-.02,.64-.02,1.11,0,2.03,.24,2.87,.6,.84,.48,1.46,1.05,1.98,1.71,.41,.66,.72,1.51,.9,2.54,.08,.93,.03,1.89-.26,3-.3,1.11-.8,2.08-1.42,3-.61,1.03-1.3,1.88-2.18,2.55-.87,.66-1.9,1.23-2.87,1.71-1.08,.36-2.08,.6-3.18,.6-.32,0-.65-.02-1.07-.05-.31-.14-.62-.19-.93-.26-.3-.18-.59-.28-.88-.51-.29-.24-.54-.39-.68-.69l-1.7,6.21h-2.89l5.46-20.17h2.4Zm1.07,12.63c.66,0,1.3-.08,1.92-.36,.74-.28,1.33-.61,1.89-1.12,.56-.39,.97-.95,1.32-1.55,.47-.6,.76-1.34,.87-1.99,.23-.65,.27-1.4,.22-1.99-.04-.6-.27-1.15-.56-1.55-.3-.5-.66-.84-1.2-1.12-.53-.27-1.13-.36-1.78-.36-.8,0-1.5,.09-2.32,.38-.82,.3-1.48,.77-2.1,1.2l-1.9,6.86c.46,.43,.87,.9,1.59,1.2,.61,.29,1.26,.38,2.05,.38"/><path d="M496,214.92c.29-1.11,.7-2.07,1.44-3,.64-1.03,1.46-1.88,2.35-2.54,.89-.67,1.84-1.24,2.94-1.71,1.09-.36,2.1-.6,3.21-.6s2.04,.24,2.89,.6c.85,.48,1.5,1.05,2.05,1.71,.55,.66,.87,1.51,.97,2.54,.21,.93,.16,1.89-.13,3-.29,1.11-.81,2.08-1.45,3-.74,1.03-1.45,1.88-2.35,2.55-.89,.66-1.94,1.23-3.04,1.71-1,.36-2.1,.6-3.1,.6-1.11,0-2.04-.24-2.9-.6-.85-.48-1.61-1.05-2.04-1.71-.55-.67-.86-1.52-1.07-2.55-.1-.92-.05-1.89,.23-3m2.74,0c-.11,.65-.14,1.39-.07,1.99,.07,.6,.31,1.15,.63,1.55,.32,.5,.8,.84,1.36,1.12,.56,.27,1.17,.36,1.82,.36s1.42-.08,2.06-.36c.75-.28,1.37-.61,1.95-1.12,.58-.39,1.01-.95,1.49-1.55,.38-.6,.68-1.34,.9-1.99,.23-.65,.26-1.39,.08-1.99-.06-.6-.31-1.15-.63-1.55-.32-.5-.7-.84-1.26-1.12-.56-.27-1.16-.36-1.92-.36-.65,0-1.3,.08-2.06,.36-.64,.28-1.26,.61-1.85,1.12-.57,.39-1.11,.95-1.49,1.55-.49,.6-.79,1.34-1.02,1.99"/><path d="M522.29,207.3c.03,.07,.06,.26,.07,.32,.02,.07,.03,.26,.03,.35,0,.2,0,.3-.04,.52l-.29,1.1c.28-.43,.59-.75,1.05-1.05,.36-.29,.73-.57,1.23-.71,.38-.25,.89-.47,1.42-.55,.41-.19,.93-.23,1.44-.23,.71,0,1.47,.2,2.09,.48l-.57,1.21c-.22,.37-.49,.67-.81,.93-.32,.25-.66,.32-1.01,.32-.13,0-.16,0-.17,0,0,0-.01,0-.02,0-.02,0-.04,0-.07,0-.02,0-.19,0-.27,0-.58,0-1.16,.05-1.73,.27-.57,.21-1.11,.35-1.52,.63-.51,.28-.87,.58-1.18,.91-.43,.43-.58,.76-.76,1.09l-2.61,9.66h-2.79l4.09-15.23h2.41Z"/><path d="M546.59,218.7c-.03,.1-.04,.3-.04,.51,0,.1,.02,.29,.06,.38,.14,.08,.19,.26,.26,.31,.17,.05,.26,.19,.49,.19l.33-.14c.39-.08,.85-.11,1.15-.11,.36,0,.66,.07,.93,.3,.27,.24,.49,.39,.57,.69l.24,.54c-.25,.22-.53,.32-.85,.54-.33,.21-.76,.31-1.1,.38-.34,.19-.68,.25-1.13,.3-.33,.16-.65,.18-.92,.18-.61,0-1.15-.06-1.52-.3-.49-.23-.8-.52-1.07-.86-.26-.33-.35-.82-.38-1.24-.03-.53,0-1.09,.09-1.68l2.33-8.7h-2.46l.36-1.53c.24-.83,1.11-1.19,2.58-1.19h.31l.85-3.17c.06-.3,.13-.6,.33-.88,.1-.28,.29-.53,.38-.65,.21-.26,.43-.5,.54-.72h2.24l-1.44,5.42h4.18l-.69,2.71h-4.29l-2.32,8.7Z"/><path d="M563.11,207.3l-4.08,15.23h-2.89l4.09-15.23h2.89Zm-2.34-3.82c.04-.28,.12-.55,.33-.8,.11-.26,.34-.39,.59-.61,.26-.22,.41-.31,.68-.37,.28-.17,.55-.2,.83-.2s.54,.03,.78,.2c.14,.06,.36,.16,.44,.37,.19,.22,.25,.35,.27,.61,.03,.26,.01,.52-.03,.8-.04,.28-.23,.54-.33,.7-.21,.26-.45,.5-.58,.61-.26,.22-.52,.42-.79,.48-.28,.07-.56,.1-.83,.1-.17,0-.42-.03-.67-.1-.24-.06-.35-.26-.53-.48-.09-.12-.13-.35-.27-.61-.02-.15-.01-.42,.14-.7"/><path d="M571.71,220.78c-.05,.28-.12,.55-.34,.81-.12,.26-.34,.39-.59,.61-.25,.22-.51,.31-.68,.37-.27,.17-.55,.21-.83,.21s-.54-.03-.78-.21c-.13-.06-.35-.15-.54-.37-.08-.22-.13-.35-.15-.61-.03-.26-.02-.52,.03-.81,.05-.28,.12-.54,.34-.69,.21-.26,.33-.5,.59-.72,.25-.11,.51-.31,.79-.37,.17-.07,.44-.21,.72-.21s.54,.14,.77,.21c.24,.06,.35,.26,.54,.37,.08,.22,.14,.46,.16,.72,.13,.15,.12,.42-.03,.69m-2.08-4.79l3.81-14.27h2.9l-3.81,14.27h-2.9Z"/><path d="M397.14,102.76c9.78,0,17.48,2.97,23.3,9.01,5.83,5.93,8.74,13.86,8.74,23.79v56.08h-25.03v-52.96c0-4.28-1.25-7.62-3.88-10.24-2.62-2.62-6.08-3.99-10.25-3.99-4.42,0-8.18,1.51-11.27,4.64-2.99,3.13-4.48,6.8-4.48,11.33v51.23h-25.03v-52.96c0-4.28-1.24-7.62-3.82-10.24-2.59-2.62-5.92-3.99-10.19-3.99s-8.2,1.51-11.21,4.64c-3.13,3.13-4.64,6.8-4.64,11.33v51.23h-25.03V102.74h22.44l1.19,10.81c6.47-7.23,14.59-10.79,24.27-10.79,11.97,0,20.93,4.43,26.75,13.27,7.12-8.85,16.61-13.27,28.15-13.27"/><path d="M519.04,147.1c0,2.37-.21,4.78-.54,7.34h-58.03c1.48,12.04,7.8,18.12,18.88,18.12,4.17,0,7.85-.88,10.84-2.64,2.98-1.76,5.94-4.87,9-9.23l17.58,8.74c-3.19,6.97-7.98,12.46-14.56,16.34-6.48,3.99-13.99,5.88-22.45,5.88-14.35,0-25.24-3.97-32.79-12.14-7.55-8.16-11.32-18.93-11.32-32.3s3.95-23.68,11.65-32.09c7.8-8.31,18.34-12.57,31.71-12.57,12.29,0,22,4.05,29.23,12.14,7.12,7.98,10.79,18.78,10.79,32.41m-40.45-25.02c-9.42,0-15.28,5.22-17.59,15.53h34.41c-1.8-10.32-7.48-15.53-16.83-15.53"/><polygon points="614.6 102.74 577.22 147.38 614.34 191.64 584.44 191.65 562.29 165 540.09 191.64 510.27 191.65 547.35 147.46 509.82 102.74 539.84 102.74 562.29 129.62 584.79 102.74 614.6 102.74"/></svg>