<?xml version="1.0" encoding="utf-8"?>
<!-- Generator: Adobe Illustrator 25.4.1, SVG Export Plug-In . SVG Version: 6.00 Build 0)  -->
<svg version="1.1" id="Capa_1" xmlns="http://www.w3.org/2000/svg" xmlns:xlink="http://www.w3.org/1999/xlink" x="0px" y="0px"
	 viewBox="0 0 26.81 26.81" style="enable-background:new 0 0 26.81 26.81;" xml:space="preserve">
<style type="text/css">
	.st0{fill:#010101;}
</style>
<g>
	<g>
		<circle class="st0" cx="13.41" cy="13.41" r="0.78"/>
		<path class="st0" d="M18.48,8.88c-1.41-1.52-3.4-2.28-5.47-2.11c-3.15,0.27-5.69,2.74-6.03,5.88c-0.21,1.89,0.39,3.79,1.66,5.2
			s3.08,2.22,4.98,2.22c0.28,0,0.55-0.15,0.67-0.41c0.28-0.58-0.13-1.15-0.68-1.16c-0.77-0.01-1.54-0.1-2.22-0.46
			c-2.06-1.09-3.09-3.09-2.86-5.21c0.26-2.36,2.24-4.29,4.61-4.49c1.58-0.13,3.11,0.45,4.18,1.61c0.62,0.67,0.97,1.58,0.97,2.54V14
			c0,0.33-0.19,0.65-0.51,0.75c-0.52,0.17-1-0.22-1-0.72v-2.94c0-0.37-0.23-0.71-0.59-0.8c-0.36-0.09-0.68,0.07-0.85,0.34
			c-0.71-0.5-1.61-0.73-2.57-0.56c-1.36,0.25-2.45,1.34-2.7,2.69c-0.39,2.14,1.25,4.02,3.33,4.02c0.99,0,1.88-0.43,2.5-1.11
			c0.5,0.5,1.23,0.77,2.02,0.65c1.08-0.17,1.94-1.28,1.94-2.37v-1.46C19.87,11.12,19.38,9.84,18.48,8.88z M13.9,15.16
			c-1.38,0.37-2.61-0.87-2.25-2.25c0.16-0.61,0.65-1.1,1.26-1.26c1.38-0.37,2.61,0.87,2.25,2.25C15,14.51,14.51,15,13.9,15.16z"/>
	</g>
</g>
</svg>
