<?xml version="1.0" encoding="utf-8"?>
<!-- Generator: Adobe Illustrator 25.4.1, SVG Export Plug-In . SVG Version: 6.00 Build 0)  -->
<svg version="1.1" id="Capa_1" xmlns="http://www.w3.org/2000/svg" xmlns:xlink="http://www.w3.org/1999/xlink" x="0px" y="0px"
	 viewBox="0 0 26.81 26.81" style="enable-background:new 0 0 26.81 26.81;" xml:space="preserve">
<style type="text/css">
	.st0{fill:#010101;}
</style>
<g>
	<path class="st0" d="M17.88,4.45H9.34c-1.27,0-2.3,1.03-2.3,2.3v13.73c0,1.04,0.84,1.89,1.89,1.89h8.95c1.04,0,1.89-0.84,1.89-1.89
		V6.34C19.77,5.3,18.92,4.45,17.88,4.45z M8.93,7.99c0-0.26,0.21-0.47,0.47-0.47h8.01c0.26,0,0.47,0.21,0.47,0.47v4.24
		c0,0.26-0.21,0.47-0.47,0.47H9.4c-0.26,0-0.47-0.21-0.47-0.47C8.93,12.23,8.93,7.99,8.93,7.99z M10.58,20.48H9.64
		c-0.39,0-0.71-0.32-0.71-0.71s0.32-0.71,0.71-0.71h0.94c0.39,0,0.71,0.32,0.71,0.71S10.97,20.48,10.58,20.48z M10.58,18.12H9.64
		c-0.39,0-0.71-0.32-0.71-0.71s0.32-0.71,0.71-0.71h0.94c0.39,0,0.71,0.32,0.71,0.71C11.29,17.8,10.97,18.12,10.58,18.12z
		 M10.58,15.76H9.64c-0.39,0-0.71-0.32-0.71-0.71s0.32-0.71,0.71-0.71h0.94c0.39,0,0.71,0.32,0.71,0.71
		C11.29,15.45,10.97,15.76,10.58,15.76z M13.88,20.48h-0.94c-0.39,0-0.71-0.32-0.71-0.71s0.32-0.71,0.71-0.71h0.94
		c0.39,0,0.71,0.32,0.71,0.71C14.58,20.16,14.27,20.48,13.88,20.48z M13.88,18.12h-0.94c-0.39,0-0.71-0.32-0.71-0.71
		s0.32-0.71,0.71-0.71h0.94c0.39,0,0.71,0.32,0.71,0.71C14.58,17.8,14.27,18.12,13.88,18.12z M13.88,15.76h-0.94
		c-0.39,0-0.71-0.32-0.71-0.71s0.32-0.71,0.71-0.71h0.94c0.39,0,0.71,0.32,0.71,0.71C14.58,15.45,14.27,15.76,13.88,15.76z
		 M16.23,14.35h0.94c0.39,0,0.71,0.32,0.71,0.71s-0.32,0.71-0.71,0.71h-0.94c-0.39,0-0.71-0.32-0.71-0.71
		C15.53,14.67,15.84,14.35,16.23,14.35z M17.91,19.73c0,0.47-0.38,0.86-0.86,0.86h-0.61c-0.47,0-0.86-0.38-0.86-0.86v-2.12
		c0-0.47,0.38-0.86,0.86-0.86h0.61c0.47,0,0.86,0.38,0.86,0.86V19.73z"/>
</g>
</svg>
