<?xml version="1.0" encoding="utf-8"?>
<!-- Generator: Adobe Illustrator 25.4.1, SVG Export Plug-In . SVG Version: 6.00 Build 0)  -->
<svg version="1.1" id="Capa_1" xmlns="http://www.w3.org/2000/svg" xmlns:xlink="http://www.w3.org/1999/xlink" x="0px" y="0px"
	 viewBox="0 0 26.81 26.81" style="enable-background:new 0 0 26.81 26.81;" xml:space="preserve">
<style type="text/css">
	.st0{fill:#010101;}
</style>
<g>
	<g>
		<g>
			<path class="st0" d="M15.1,9.47h-4.18c-0.17,0-0.31-0.14-0.31-0.31s0.14-0.31,0.31-0.31h4.18c0.17,0,0.31,0.14,0.31,0.31
				C15.41,9.33,15.27,9.47,15.1,9.47z"/>
		</g>
		<g>
			<path class="st0" d="M15.1,10.82h-4.18c-0.17,0-0.31-0.14-0.31-0.31s0.14-0.31,0.31-0.31h4.18c0.17,0,0.31,0.14,0.31,0.31
				C15.41,10.68,15.27,10.82,15.1,10.82z"/>
		</g>
		<g>
			<path class="st0" d="M15.1,12.17h-4.18c-0.17,0-0.31-0.14-0.31-0.31s0.14-0.31,0.31-0.31h4.18c0.17,0,0.31,0.14,0.31,0.31
				C15.41,12.03,15.27,12.17,15.1,12.17z"/>
		</g>
		<g>
			<path class="st0" d="M15.1,13.52h-4.18c-0.17,0-0.31-0.14-0.31-0.31s0.14-0.31,0.31-0.31h4.18c0.17,0,0.31,0.14,0.31,0.31
				C15.41,13.38,15.27,13.52,15.1,13.52z"/>
		</g>
		<g>
			<path class="st0" d="M8.91,10.18c-0.08,0-0.15-0.03-0.21-0.08L8.19,9.64C8.06,9.53,8.04,9.33,8.16,9.2
				C8.27,9.07,8.47,9.06,8.6,9.17l0.28,0.25l0.7-0.82c0.11-0.13,0.31-0.15,0.44-0.04c0.13,0.11,0.15,0.31,0.04,0.44l-0.9,1.07
				c-0.05,0.06-0.13,0.1-0.21,0.11C8.93,10.18,8.92,10.18,8.91,10.18z"/>
		</g>
		<g>
			<path class="st0" d="M8.91,12.02c-0.08,0-0.15-0.03-0.21-0.08l-0.52-0.46c-0.13-0.11-0.14-0.31-0.03-0.44
				c0.11-0.13,0.31-0.14,0.44-0.03l0.28,0.25l0.7-0.82c0.11-0.13,0.31-0.15,0.44-0.04c0.13,0.11,0.15,0.31,0.04,0.44l-0.9,1.07
				c-0.05,0.06-0.13,0.1-0.21,0.11C8.93,12.02,8.92,12.02,8.91,12.02z"/>
		</g>
		<g>
			<path class="st0" d="M8.91,13.82c-0.08,0-0.15-0.03-0.21-0.08l-0.52-0.46c-0.13-0.11-0.14-0.31-0.03-0.44
				c0.11-0.13,0.31-0.14,0.44-0.03l0.28,0.25l0.7-0.82c0.11-0.13,0.31-0.15,0.44-0.04c0.13,0.11,0.15,0.31,0.04,0.44l-0.9,1.07
				c-0.05,0.06-0.13,0.1-0.21,0.11C8.93,13.82,8.92,13.82,8.91,13.82z"/>
		</g>
	</g>
	<g>
		<path class="st0" d="M23.51,14.45c0,0.12-0.05,0.24-0.14,0.33l-0.41,0.41c-0.18,0.18-0.48,0.18-0.66,0l-1.41-1.45
			c-0.24,0.12-0.68,0.28-1.22,0.28c-1.46,0-2.66-1.1-2.79-2.55c-0.01-0.16-0.02-0.3,0-0.45c0.1-1.46,1.33-2.61,2.8-2.61
			s2.7,1.15,2.8,2.62c0.01,0.13,0.01,0.28,0,0.44c-0.04,0.45-0.19,0.9-0.45,1.28v0.01l1.35,1.36
			C23.47,14.21,23.51,14.32,23.51,14.45z M22.64,14.83l0.38-0.38l-1.63-1.65l0.14-0.17c0.02-0.02,0.02-0.03,0.03-0.03
			c0,0,0.01-0.02,0.02-0.04v-0.01l0.03-0.04c0.22-0.32,0.35-0.7,0.39-1.09c0.01-0.12,0.02-0.24,0-0.36
			c-0.08-1.22-1.1-2.17-2.32-2.17s-2.24,0.95-2.32,2.17c-0.01,0.14-0.01,0.25,0,0.37c0.11,1.21,1.1,2.11,2.31,2.11
			c0.49,0,0.89-0.17,1.09-0.27c0.02-0.01,0.04-0.02,0.05-0.03l0.16-0.1l0.14,0.14L22.64,14.83z"/>
	</g>
	<path class="st0" d="M19.88,8.85c0.17,0,0.31-0.14,0.31-0.31V7.2c0-0.56-0.45-1.02-1.01-1.02H4.31C3.75,6.19,3.3,6.64,3.3,7.2v9.06
		c0,0.56,0.45,1.02,1.01,1.02h2.98h2.88v1.53H8.94c-0.4,0-0.73,0.33-0.73,0.72v0.37c0,0.4,0.33,0.73,0.73,0.73h5.61
		c0.4,0,0.73-0.33,0.73-0.73v-0.37c0-0.4-0.33-0.72-0.73-0.72h-1.23v-1.53h2.86h2.71h0.29c0.56,0,1.01-0.46,1.01-1.02v-2.4
		c0-0.17-0.14-0.31-0.31-0.31s-0.31,0.14-0.31,0.31v1.29H3.92V7.2c0-0.22,0.18-0.39,0.39-0.39h14.87c0.22,0,0.39,0.18,0.39,0.39
		v1.33C19.57,8.71,19.71,8.85,19.88,8.85z M14.55,19.43c0.06,0,0.1,0.05,0.1,0.1v0.37c0,0.06-0.05,0.1-0.1,0.1H8.94
		c-0.06,0-0.1-0.05-0.1-0.1v-0.37c0-0.06,0.05-0.1,0.1-0.1H14.55z M12.69,18.8H10.8v-1.53h0.86h0.07h0.96V18.8z M19.57,15.78v0.48
		c0,0.22-0.18,0.39-0.39,0.39h-0.29h-2.71h-4.45h-0.07H7.29H4.31c-0.22,0-0.39-0.18-0.39-0.39v-0.48
		C3.92,15.78,19.57,15.78,19.57,15.78z"/>
</g>
</svg>
