<?xml version="1.0" encoding="utf-8"?>
<!-- Generator: Adobe Illustrator 25.4.1, SVG Export Plug-In . SVG Version: 6.00 Build 0)  -->
<svg version="1.1" id="Capa_1" xmlns="http://www.w3.org/2000/svg" xmlns:xlink="http://www.w3.org/1999/xlink" x="0px" y="0px"
	 viewBox="0 0 26.81 26.81" style="enable-background:new 0 0 26.81 26.81;" xml:space="preserve">
<style type="text/css">
	.st0{fill:#FFFFFF;}
</style>
<g>
	<path d="M23.18,13.41c0,5.4-4.38,9.78-9.78,9.78s-9.78-4.38-9.78-9.78S8,3.63,13.4,3.63S23.18,8.01,23.18,13.41z"/>
	<path class="st0" d="M17.41,9.55L8.18,13.1c-0.63,0.25-0.62,0.6-0.11,0.76l2.36,0.74l5.48-3.45c0.26-0.17,0.49-0.07,0.3,0.1
		l-4.43,4.01l-0.17,2.44c0.25,0,0.35-0.11,0.48-0.24l1.15-1.11l2.39,1.76c0.44,0.25,0.75,0.12,0.87-0.41l1.57-7.4
		C18.21,9.64,17.84,9.38,17.41,9.55z"/>
</g>
</svg>
