<?xml version="1.0" encoding="utf-8"?>
<!-- Generator: Adobe Illustrator 25.4.1, SVG Export Plug-In . SVG Version: 6.00 Build 0)  -->
<svg version="1.1" id="Capa_1" xmlns="http://www.w3.org/2000/svg" xmlns:xlink="http://www.w3.org/1999/xlink" x="0px" y="0px"
	 viewBox="0 0 26.81 26.81" style="enable-background:new 0 0 26.81 26.81;" xml:space="preserve">
<style type="text/css">
	.st0{fill:#010101;stroke:#010101;stroke-width:0.25;stroke-miterlimit:10;}
</style>
<g>
	<g>
		<g>
			<g>
				<path class="st0" d="M9.32,8.99c-0.05,0-0.1-0.01-0.14-0.03L4.95,7.29C4.81,7.23,4.72,7.1,4.72,6.95s0.09-0.28,0.23-0.34
					l4.23-1.68c0.09-0.04,0.19-0.04,0.28,0l4.23,1.68c0.14,0.06,0.23,0.19,0.23,0.34s-0.09,0.28-0.23,0.34L9.46,8.97
					C9.42,8.99,9.37,8.99,9.32,8.99z M6.08,6.95l3.24,1.29l3.24-1.29L9.32,5.66L6.08,6.95z"/>
			</g>
			<g>
				<path class="st0" d="M9.32,10.53c-0.05,0-0.1-0.01-0.14-0.03L4.95,8.82C4.81,8.77,4.72,8.63,4.72,8.48V6.95
					c0-0.12,0.06-0.23,0.16-0.3s0.23-0.08,0.35-0.04l4.09,1.63l4.09-1.63c0.11-0.05,0.25-0.03,0.35,0.04s0.16,0.18,0.16,0.3v1.53
					c0,0.15-0.09,0.28-0.23,0.34L9.46,10.5C9.42,10.52,9.37,10.53,9.32,10.53z M5.46,8.24l3.86,1.53l3.86-1.53V7.49L9.46,8.97
					C9.37,9,9.27,9,9.18,8.97L5.46,7.49V8.24z"/>
			</g>
			<g>
				<path class="st0" d="M9.32,13.88c-0.23,0-0.46-0.04-0.68-0.13l-2.93-1.16c-0.38-0.15-0.63-0.51-0.63-0.91V8.63
					c0-0.2,0.17-0.36,0.37-0.36c0.21,0,0.37,0.16,0.37,0.36v3.04c0,0.1,0.06,0.2,0.16,0.24l2.93,1.16c0.26,0.1,0.54,0.1,0.8,0
					l2.93-1.16c0.1-0.04,0.16-0.13,0.16-0.24V8.63c0-0.2,0.17-0.36,0.37-0.36c0.21,0,0.37,0.16,0.37,0.36v3.04
					c0,0.4-0.25,0.76-0.63,0.91L10,13.75C9.78,13.84,9.55,13.88,9.32,13.88z"/>
			</g>
			<g>
				<path class="st0" d="M9.32,13.88c-0.21,0-0.37-0.16-0.37-0.36V8.63c0-0.2,0.17-0.36,0.37-0.36c0.21,0,0.37,0.16,0.37,0.36v4.88
					C9.69,13.71,9.53,13.88,9.32,13.88z"/>
			</g>
		</g>
		<g>
			<path class="st0" d="M20.3,21.91h-9.56c-0.99,0-1.79-0.79-1.79-1.75V14.9c0-0.2,0.17-0.36,0.37-0.36c0.21,0,0.37,0.16,0.37,0.36
				v5.26c0,0.57,0.47,1.03,1.05,1.03h9.56c0.58,0,1.05-0.46,1.05-1.03V8.56c0-0.57-0.47-1.03-1.05-1.03h-5.38
				c-0.21,0-0.37-0.16-0.37-0.36c0-0.2,0.17-0.36,0.37-0.36h5.38c0.99,0,1.79,0.79,1.79,1.75v11.6
				C22.1,21.12,21.29,21.91,20.3,21.91z"/>
		</g>
		<g>
			<path class="st0" d="M13.18,16.58h-1.75c-0.21,0-0.37-0.16-0.37-0.36v-1.71c0-0.2,0.17-0.36,0.37-0.36h1.75
				c0.21,0,0.37,0.16,0.37,0.36v1.71C13.56,16.42,13.39,16.58,13.18,16.58z M11.81,15.86h1v-0.98h-1V15.86z"/>
		</g>
		<g>
			<path class="st0" d="M13.18,19.93h-1.75c-0.21,0-0.37-0.16-0.37-0.36v-1.71c0-0.2,0.17-0.36,0.37-0.36h1.75
				c0.21,0,0.37,0.16,0.37,0.36v1.71C13.56,19.77,13.39,19.93,13.18,19.93z M11.81,19.2h1v-0.98h-1V19.2z"/>
		</g>
		<g>
			<path class="st0" d="M19.82,15.73h-4.89c-0.21,0-0.37-0.16-0.37-0.36s0.17-0.36,0.37-0.36h4.89c0.21,0,0.37,0.16,0.37,0.36
				S20.03,15.73,19.82,15.73z"/>
		</g>
		<g>
			<path class="st0" d="M19.82,19.08h-4.89c-0.21,0-0.37-0.16-0.37-0.36s0.17-0.36,0.37-0.36h4.89c0.21,0,0.37,0.16,0.37,0.36
				S20.03,19.08,19.82,19.08z"/>
		</g>
		<g>
			<path class="st0" d="M19.82,12.38h-4.89c-0.21,0-0.37-0.16-0.37-0.36s0.17-0.36,0.37-0.36h4.89c0.21,0,0.37,0.16,0.37,0.36
				S20.03,12.38,19.82,12.38z"/>
		</g>
	</g>
</g>
</svg>
