<?xml version="1.0" encoding="utf-8"?>
<!-- Generator: Adobe Illustrator 25.4.1, SVG Export Plug-In . SVG Version: 6.00 Build 0)  -->
<svg version="1.1" id="Capa_1" xmlns="http://www.w3.org/2000/svg" xmlns:xlink="http://www.w3.org/1999/xlink" x="0px" y="0px"
	 viewBox="0 0 26.81 26.81" style="enable-background:new 0 0 26.81 26.81;" xml:space="preserve">
<style type="text/css">
	.st0{fill:#010101;}
</style>
<g>
	<g>
		<g>
			<path class="st0" d="M18.94,19.15H7.87c-0.84,0-1.52-0.68-1.52-1.52V5.01c0-0.21,0.17-0.38,0.38-0.38h13.35
				c0.21,0,0.38,0.17,0.38,0.38v12.61C20.46,18.46,19.78,19.15,18.94,19.15z M7.11,5.39v12.23c0,0.42,0.34,0.76,0.76,0.76h11.06
				c0.42,0,0.76-0.34,0.76-0.76V5.39H7.11z"/>
		</g>
		<g>
			<path class="st0" d="M14.42,10.38c-0.2,0-0.4-0.03-0.59-0.1c-0.28-0.1-0.57-0.1-0.85,0c-0.66,0.22-1.37,0.06-1.87-0.43
				C11.04,9.78,11,9.68,11,9.58V5.01c0-0.21,0.17-0.38,0.38-0.38h4.04c0.21,0,0.38,0.17,0.38,0.38v4.57c0,0.1-0.04,0.2-0.11,0.27
				C15.35,10.19,14.89,10.38,14.42,10.38z M13.41,9.45c0.23,0,0.45,0.04,0.67,0.11c0.33,0.11,0.69,0.05,0.97-0.15V5.39h-3.28V9.4
				c0.28,0.21,0.64,0.27,0.97,0.15C12.96,9.48,13.18,9.45,13.41,9.45z"/>
		</g>
		<g>
			<path class="st0" d="M8.84,17.79c-0.59,0-1.07-0.48-1.07-1.07s0.48-1.07,1.07-1.07s1.07,0.48,1.07,1.07
				C9.91,17.31,9.43,17.79,8.84,17.79z M8.84,16.41c-0.17,0-0.31,0.14-0.31,0.31s0.14,0.31,0.31,0.31s0.31-0.14,0.31-0.31
				C9.15,16.55,9.01,16.41,8.84,16.41z"/>
		</g>
		<g>
			<path class="st0" d="M11.19,17.79c-0.59,0-1.07-0.48-1.07-1.07s0.48-1.07,1.07-1.07s1.07,0.48,1.07,1.07
				C12.25,17.31,11.78,17.79,11.19,17.79z M11.19,16.41c-0.17,0-0.31,0.14-0.31,0.31s0.14,0.31,0.31,0.31s0.31-0.14,0.31-0.31
				C11.49,16.55,11.36,16.41,11.19,16.41z"/>
		</g>
	</g>
	<g>
		<path class="st0" d="M22.35,20.63H4.47c-0.21,0-0.38-0.17-0.38-0.38s0.17-0.38,0.38-0.38h17.88c0.21,0,0.38,0.17,0.38,0.38
			S22.56,20.63,22.35,20.63z"/>
	</g>
	<g>
		<path class="st0" d="M12.3,22.18H9.49c-0.21,0-0.38-0.17-0.38-0.38v-0.77h0.76v0.39h2.05v-0.39h0.76v0.77
			C12.68,22.01,12.51,22.18,12.3,22.18z"/>
	</g>
	<g>
		<path class="st0" d="M17.32,22.18h-2.81c-0.21,0-0.38-0.17-0.38-0.38v-0.77h0.76v0.39h2.05v-0.39h0.76v0.77
			C17.7,22.01,17.53,22.18,17.32,22.18z"/>
	</g>
	<g>
		<path class="st0" d="M22.35,22.18h-2.81c-0.21,0-0.38-0.17-0.38-0.38v-0.77h0.76v0.39h2.05v-1.17h0.76v1.55
			C22.73,22.01,22.56,22.18,22.35,22.18z"/>
	</g>
	<g>
		<path class="st0" d="M7.27,22.18h-2.8c-0.21,0-0.38-0.17-0.38-0.38v-1.55h0.76v1.17H6.9v-0.39h0.76v0.77
			C7.65,22.01,7.48,22.18,7.27,22.18z"/>
	</g>
</g>
</svg>
