<?xml version="1.0" encoding="utf-8"?>
<!-- Generator: Adobe Illustrator 25.4.1, SVG Export Plug-In . SVG Version: 6.00 Build 0)  -->
<svg version="1.1" id="Capa_1" xmlns="http://www.w3.org/2000/svg" xmlns:xlink="http://www.w3.org/1999/xlink" x="0px" y="0px"
	 viewBox="0 0 26.81 26.81" style="enable-background:new 0 0 26.81 26.81;" xml:space="preserve">
<style type="text/css">
	.st0{fill:#010101;}
</style>
<g>
	<g>
		<path class="st0" d="M17.3,22.49H5.93c-0.88,0-1.6-0.72-1.6-1.6V9.51c0-0.88,0.72-1.6,1.6-1.6H17.3c0.88,0,1.6,0.72,1.6,1.6v11.38
			C18.9,21.77,18.18,22.49,17.3,22.49z M5.93,8.68c-0.46,0-0.83,0.37-0.83,0.83v11.38c0,0.46,0.37,0.83,0.83,0.83H17.3
			c0.46,0,0.83-0.37,0.83-0.83V9.51c0-0.46-0.37-0.83-0.83-0.83H5.93z"/>
	</g>
	<g>
		<path class="st0" d="M21.78,18.51c-0.09,0-0.19-0.03-0.26-0.1c-0.16-0.14-0.17-0.39-0.02-0.54c0.14-0.15,0.22-0.35,0.22-0.56V5.92
			c0-0.46-0.37-0.83-0.83-0.83H9.51c-0.22,0-0.43,0.09-0.59,0.24c-0.15,0.15-0.39,0.15-0.55,0s-0.15-0.39,0-0.55
			c0.3-0.3,0.7-0.47,1.13-0.47h11.38c0.88,0,1.6,0.72,1.6,1.6V17.3c0,0.4-0.15,0.78-0.42,1.08C21.99,18.46,21.89,18.51,21.78,18.51z
			"/>
	</g>
	<g>
		<path class="st0" d="M16.79,20.76H6.44c-0.21,0-0.39-0.17-0.39-0.39V10.03c0-0.21,0.17-0.39,0.39-0.39h10.35
			c0.21,0,0.39,0.17,0.39,0.39v10.35C17.17,20.59,17,20.76,16.79,20.76z M6.83,19.99h9.58v-9.58H6.83V19.99z"/>
	</g>
	<g>
		<path class="st0" d="M6.44,20.76c-0.1,0-0.2-0.04-0.27-0.11s-0.11-0.17-0.11-0.27v-1.44c0-0.1,0.04-0.2,0.11-0.27l8.91-8.91
			c0.07-0.07,0.17-0.11,0.27-0.11h1.44c0.21,0,0.39,0.17,0.39,0.39v1.44c0,0.1-0.04,0.2-0.11,0.27l-8.91,8.91
			c-0.07,0.07-0.17,0.11-0.27,0.11L6.44,20.76z M6.83,19.1v0.89h0.89l8.68-8.68v-0.89h-0.89L6.83,19.1z"/>
	</g>
	<g>
		<path class="st0" d="M10.18,15.58c-0.1,0-0.2-0.04-0.27-0.11l-3.74-3.74c-0.07-0.07-0.11-0.17-0.11-0.27v-1.44
			c0-0.1,0.04-0.2,0.11-0.27c0.07-0.07,0.17-0.11,0.27-0.11h1.44c0.1,0,0.2,0.04,0.27,0.11l3.74,3.74c0.07,0.07,0.11,0.17,0.11,0.27
			s-0.04,0.2-0.11,0.27l-1.44,1.44C10.37,15.55,10.28,15.58,10.18,15.58z M6.83,11.3l3.35,3.35l0.89-0.89l-3.35-3.35H6.83V11.3z"/>
	</g>
	<g>
		<path class="st0" d="M16.79,20.76h-1.44c-0.1,0-0.2-0.04-0.27-0.11l-3.74-3.74c-0.15-0.15-0.15-0.39,0-0.55l1.44-1.44
			c0.14-0.14,0.4-0.14,0.55,0l3.74,3.74c0.07,0.07,0.11,0.17,0.11,0.27v1.44C17.17,20.59,17,20.76,16.79,20.76z M15.51,19.99h0.89
			V19.1l-3.35-3.35l-0.89,0.89L15.51,19.99z"/>
	</g>
	<g>
		<path class="st0" d="M18.16,9.04c-0.1,0-0.2-0.04-0.27-0.11c-0.15-0.15-0.15-0.39,0-0.55l3.59-3.59c0.15-0.15,0.39-0.15,0.55,0
			c0.15,0.15,0.15,0.39,0,0.55l-3.59,3.59C18.36,9,18.26,9.04,18.16,9.04z"/>
	</g>
	<g>
		<path class="st0" d="M5.08,9.02c-0.1,0-0.2-0.04-0.27-0.11c-0.15-0.15-0.15-0.39,0-0.55L8.38,4.8c0.15-0.15,0.39-0.15,0.55,0
			c0.15,0.15,0.15,0.39,0,0.55L5.36,8.91C5.28,8.99,5.18,9.02,5.08,9.02z"/>
	</g>
	<g>
		<path class="st0" d="M18.16,22.13c-0.1,0-0.2-0.04-0.27-0.11c-0.15-0.15-0.15-0.39,0-0.55l3.62-3.62c0.15-0.15,0.39-0.15,0.55,0
			c0.15,0.15,0.15,0.39,0,0.55l-3.62,3.62C18.36,22.09,18.26,22.13,18.16,22.13z"/>
	</g>
</g>
</svg>
