<?xml version="1.0" encoding="utf-8"?>
<!-- Generator: Adobe Illustrator 25.4.1, SVG Export Plug-In . SVG Version: 6.00 Build 0)  -->
<svg version="1.1" id="Capa_1" xmlns="http://www.w3.org/2000/svg" xmlns:xlink="http://www.w3.org/1999/xlink" x="0px" y="0px"
	 viewBox="0 0 26.81 26.81" style="enable-background:new 0 0 26.81 26.81;" xml:space="preserve">
<style type="text/css">
	.st0{fill:#010101;}
</style>
<g>
	<g>
		<path class="st0" d="M15.16,19.02H8.53c-0.19,0-0.34-0.15-0.34-0.34s0.15-0.34,0.34-0.34h6.63c0.38,0,0.68-0.31,0.68-0.68V6.69
			H4.56v10.97c0,0.38,0.31,0.68,0.68,0.68h0.65c0.19,0,0.34,0.15,0.34,0.34s-0.15,0.34-0.34,0.34H5.24c-0.75,0-1.37-0.61-1.37-1.37
			V6.35C3.88,6.16,4.03,6,4.22,6h11.97c0.19,0,0.34,0.15,0.34,0.34v11.31C16.53,18.41,15.91,19.02,15.16,19.02z"/>
	</g>
	<g>
		<path class="st0" d="M11.11,11.16c-0.18,0-0.36-0.03-0.53-0.09c-0.25-0.08-0.51-0.08-0.76,0c-0.59,0.2-1.23,0.05-1.67-0.39
			c-0.06-0.06-0.1-0.15-0.1-0.24V6.35C8.05,6.16,8.2,6,8.39,6h3.62c0.19,0,0.34,0.15,0.34,0.34v4.09c0,0.09-0.04,0.18-0.1,0.24
			C11.94,10.99,11.53,11.16,11.11,11.16z M10.2,10.32c0.2,0,0.4,0.03,0.6,0.1c0.3,0.1,0.62,0.05,0.87-0.14v-3.6H8.73v3.6
			c0.25,0.19,0.57,0.24,0.87,0.14C9.8,10.36,10,10.32,10.2,10.32z"/>
	</g>
	<g>
		<path class="st0" d="M6.11,16.88c-0.53,0-0.96-0.43-0.96-0.96s0.43-0.96,0.96-0.96s0.96,0.43,0.96,0.96
			C7.07,16.45,6.64,16.88,6.11,16.88z M6.11,15.65c-0.15,0-0.28,0.12-0.28,0.28c0,0.15,0.12,0.28,0.28,0.28
			c0.15,0,0.28-0.12,0.28-0.28C6.38,15.77,6.26,15.65,6.11,15.65z"/>
	</g>
	<g>
		<path class="st0" d="M8.21,16.88c-0.53,0-0.96-0.43-0.96-0.96s0.43-0.96,0.96-0.96s0.96,0.43,0.96,0.96
			C9.17,16.45,8.74,16.88,8.21,16.88z M8.21,15.65c-0.15,0-0.28,0.12-0.28,0.28c0,0.15,0.12,0.28,0.28,0.28
			c0.15,0,0.28-0.12,0.28-0.28S8.36,15.65,8.21,15.65z"/>
	</g>
	<g>
		<path class="st0" d="M21.04,19.02h-0.68c-0.19,0-0.34-0.15-0.34-0.34s0.15-0.34,0.34-0.34h0.68c0.67,0,1.21-0.54,1.21-1.21v-2.09
			l-3.36-3.57h-2.37v6.87h1.2c0.19,0,0.34,0.15,0.34,0.34s-0.15,0.34-0.34,0.34h-1.54c-0.19,0-0.34-0.15-0.34-0.34v-7.55
			c0-0.19,0.15-0.34,0.34-0.34h2.86c0.09,0,0.18,0.04,0.25,0.11l3.55,3.78c0.06,0.06,0.09,0.15,0.09,0.23v2.23
			C22.93,18.17,22.09,19.02,21.04,19.02z"/>
	</g>
	<g>
		<path class="st0" d="M21.74,16.43h-0.62c-0.19,0-0.34-0.15-0.34-0.34c0-0.19,0.15-0.34,0.34-0.34h0.62c0.19,0,0.34,0.15,0.34,0.34
			C22.09,16.28,21.93,16.43,21.74,16.43z"/>
	</g>
	<g>
		<path class="st0" d="M22.59,15.24h-4.25c-0.68,0-1.23-0.55-1.23-1.23v-1.08c0-0.19,0.15-0.34,0.34-0.34s0.34,0.15,0.34,0.34v1.08
			c0,0.3,0.25,0.55,0.55,0.55h4.25c0.19,0,0.34,0.15,0.34,0.34C22.93,15.09,22.78,15.24,22.59,15.24z"/>
	</g>
	<g>
		<path class="st0" d="M19.04,20.81c-0.95,0-1.72-0.77-1.72-1.72c0-0.95,0.77-1.72,1.72-1.72c0.95,0,1.72,0.77,1.72,1.72
			C20.76,20.04,19.99,20.81,19.04,20.81z M19.04,18.05c-0.57,0-1.04,0.46-1.04,1.04s0.46,1.04,1.04,1.04s1.04-0.46,1.04-1.04
			S19.61,18.05,19.04,18.05z"/>
	</g>
	<g>
		<path class="st0" d="M7.21,20.81c-0.95,0-1.72-0.77-1.72-1.72c0-0.95,0.77-1.72,1.72-1.72s1.72,0.77,1.72,1.72
			C8.93,20.04,8.16,20.81,7.21,20.81z M7.21,18.05c-0.57,0-1.04,0.46-1.04,1.04s0.46,1.04,1.04,1.04s1.04-0.46,1.04-1.04
			S7.78,18.05,7.21,18.05z"/>
	</g>
</g>
</svg>
