<?xml version="1.0" encoding="utf-8"?>
<!-- Generator: Adobe Illustrator 25.4.1, SVG Export Plug-In . SVG Version: 6.00 Build 0)  -->
<svg version="1.1" id="Capa_1" xmlns="http://www.w3.org/2000/svg" xmlns:xlink="http://www.w3.org/1999/xlink" x="0px" y="0px"
	 viewBox="0 0 26.81 26.81" style="enable-background:new 0 0 26.81 26.81;" xml:space="preserve">
<style type="text/css">
	.st0{fill-rule:evenodd;clip-rule:evenodd;fill:#FFFFFF;}
</style>
<g>
	<path d="M23.08,14.19c0,5.4-4.38,9.78-9.78,9.78s-9.78-4.38-9.78-9.78S7.9,4.41,13.3,4.41S23.08,8.79,23.08,14.19z"/>
	<path class="st0" d="M14.59,11.36c0.25-0.01,0.49,0,0.74,0c0.03,0,0.06,0,0.1,0v-1.27c-0.13-0.01-0.27-0.03-0.41-0.04
		c-0.25-0.01-0.5-0.02-0.75-0.02c-0.38,0.01-0.75,0.1-1.07,0.33c-0.36,0.26-0.56,0.63-0.64,1.06c-0.03,0.18-0.04,0.36-0.04,0.55
		c-0.01,0.29,0,0.57,0,0.86v0.11H11.3v1.42h1.21v3.58h1.48v-3.57h1.21c0.06-0.47,0.12-0.94,0.19-1.43c-0.1,0-0.18,0-0.27,0
		c-0.34,0-1.13,0-1.13,0s0-0.71,0.01-1.01C14,11.5,14.25,11.38,14.59,11.36z"/>
</g>
</svg>
