<?xml version="1.0" encoding="utf-8"?>
<!-- Generator: Adobe Illustrator 25.4.1, SVG Export Plug-In . SVG Version: 6.00 Build 0)  -->
<svg version="1.1" id="Capa_1" xmlns="http://www.w3.org/2000/svg" xmlns:xlink="http://www.w3.org/1999/xlink" x="0px" y="0px"
	 viewBox="0 0 26.81 26.81" style="enable-background:new 0 0 26.81 26.81;" xml:space="preserve">
<style type="text/css">
	.st0{fill:#010101;}
</style>
<g>
	<g>
		<g>
			<path class="st0" d="M17.95,12.81h-0.59c-0.33,0-0.59,0.27-0.59,0.59c0,0.33,0.27,0.59,0.59,0.59h0.59
				c0.33,0,0.59-0.27,0.59-0.59C18.54,13.08,18.28,12.81,17.95,12.81z M13.41,16.76c-0.33,0-0.59,0.27-0.59,0.59v0.59
				c0,0.33,0.27,0.59,0.59,0.59c0.33,0,0.59-0.27,0.59-0.59v-0.59C14,17.03,13.73,16.76,13.41,16.76z M9.46,12.81h-0.6
				c-0.33,0-0.59,0.27-0.59,0.59c0,0.33,0.27,0.59,0.59,0.59h0.59c0.33,0,0.59-0.27,0.59-0.59C10.05,13.08,9.78,12.81,9.46,12.81z
				 M13.41,8.27c-0.33,0-0.59,0.27-0.59,0.59v0.59c0,0.33,0.27,0.59,0.59,0.59c0.33,0,0.59-0.27,0.59-0.59V8.86
				C14,8.54,13.73,8.27,13.41,8.27z"/>
			<path class="st0" d="M13.41,5.7c-4.25,0-7.7,3.45-7.7,7.7s3.45,7.7,7.7,7.7s7.7-3.45,7.7-7.7S17.66,5.7,13.41,5.7z M13.41,19.13
				c-3.16,0-5.73-2.57-5.73-5.73s2.57-5.73,5.73-5.73s5.73,2.57,5.73,5.73C19.13,16.56,16.56,19.13,13.41,19.13z M15.99,10.11
				l-2.33,2.33c-0.08-0.02-0.16-0.03-0.25-0.03c-0.13,0-0.24,0.02-0.36,0.06l-1.81-1.81c-0.23-0.23-0.61-0.23-0.84,0
				c-0.23,0.23-0.23,0.61,0,0.84l1.85,1.85c-0.02,0.08-0.03,0.16-0.03,0.25c0,0.65,0.53,1.18,1.18,1.18s1.18-0.53,1.18-1.18
				c0-0.13-0.02-0.24-0.06-0.36l2.3-2.3c0.23-0.23,0.23-0.61,0-0.84C16.6,9.88,16.22,9.88,15.99,10.11z"/>
		</g>
	</g>
</g>
</svg>
