<?xml version="1.0" encoding="UTF-8"?><svg id="Layer_1" xmlns="http://www.w3.org/2000/svg" viewBox="0 0 197.31 249.4"><defs><style>.cls-1{fill:#fed925;}</style></defs><polygon class="cls-1" points="40.3 99.37 78.85 71.06 124.46 77.71 139.64 132.8 101.75 162.81 52.45 154.44 40.3 99.37"/><path d="M133.51,72.45c15.94,0,33.41-12.86,39.03-28.72,5.62-15.86-2.74-28.71-18.68-28.71s-33.4,12.85-39.01,28.71c-5.62,15.86,2.74,28.72,18.67,28.72m-7.11,6.12l-.62-1.7-47.48-6.91-36.18,26.39-3.4,2.49,2.15,9.27c-7.18,4.06-27.9,16.96-30.24,31.68,0,.05-.02,.11-.03,.18-.07,.51-.13,1.02-.16,1.53-.01,.18-.01,.38-.02,.57,0,.36,0,.73,0,1.11,.01,.28,.03,.55,.05,.84,.02,.25,.06,.5,.1,.74,.13,.95,.32,1.91,.63,2.86,3.76,11.5,22.85,9.06,39.84,4.3l.7,2.99,46.79,8.71,3.95-.76,37.97-28.78-6.08-24.56c16.15,2.47,18.14,14.41,15.8,28.53-4.13,24.92-34.12,50.25-68.11,60.23-1.56,.46-3.03-.94-2.6-2.5,1.06-3.91,3.52-12.23,9.12-29.95-8.02-1.25-29.03-6.11-29.03-6.11l-20.62,74.67s46.02-5.5,82.81-22.85c36.79-17.36,62.27-47.29,64.81-78.69,3.76-46.5-24.8-58.15-60.16-54.26m-47.42-5.87l44.86,6.54-14.25,9.71-42.82-7.11,12.21-9.13Zm-20.43,14.7l42.86,6.77-14.34,10.76-43.07-6.72,14.56-10.81Zm-15.32,54.96c-.03-.35-.02-.69,.02-1.01,.02-.23,.05-.46,.1-.67,0-.07,.02-.15,.04-.22,.56-2.22,2.34-3.84,3.87-4.86l2.27,9.81c-3.62-.25-6.13-1.12-6.3-3.04m10.67,10.31l-.34-1.47c13.79-4.1,25.55-9.38,25.55-9.38,0,0-16.24,3.68-26.86,3.73l-2.62-11.26s.08-.02,.08-.02l-6.37-27.39s-.05,.02-.06,.02l-1.34-5.8,44.09,6.71,12.5,53.17-44.61-8.31Zm83.58-19.62l-36.12,27.37-12.44-52.96,15.36-11.35,3.44,12.09,2.89-5.24,4.25,.49-2.97-12.54,12.94-8.95,12.65,51.08Z"/></svg>