<?xml version="1.0" encoding="utf-8"?>
<!-- Generator: Adobe Illustrator 25.4.1, SVG Export Plug-In . SVG Version: 6.00 Build 0)  -->
<svg version="1.1" id="Capa_1" xmlns="http://www.w3.org/2000/svg" xmlns:xlink="http://www.w3.org/1999/xlink" x="0px" y="0px"
	 viewBox="0 0 26.81 26.81" style="enable-background:new 0 0 26.81 26.81;" xml:space="preserve">
<style type="text/css">
	.st0{fill:#010101;}
	.st1{fill:#FFFFFF;}
</style>
<g>
	<ellipse class="st0" cx="13.41" cy="13.4" rx="8.11" ry="8.11"/>
	<g>
		<g>
			<path class="st1" d="M13.17,11.22c0.28,0,0.52-0.1,0.73-0.3c0.2-0.2,0.3-0.44,0.3-0.72c0-0.3-0.1-0.54-0.3-0.74
				c-0.21-0.19-0.45-0.29-0.73-0.29s-0.52,0.1-0.72,0.3s-0.3,0.44-0.3,0.73c0,0.28,0.1,0.52,0.3,0.72
				C12.65,11.12,12.89,11.22,13.17,11.22z"/>
			<path class="st1" d="M15.36,16.14h-0.68c0,0-0.33,0-0.34-0.3c-0.03-0.4-0.06-0.73-0.06-0.83l-0.04-0.98
				c0-0.06-0.01-0.14-0.01-0.24c0-0.22,0-0.39-0.01-0.51c0-0.04-0.01-0.1-0.01-0.15l0.02-0.42v-0.98c-0.97,0.46-1.83,0.75-2.58,0.87
				l-0.15,0.7c0.13,0.03,0.27,0.04,0.4,0.04c0.18,0,0.35-0.03,0.5-0.1l0.02,1.4c0,0.34,0.01,0.78,0.02,1.22
				c0.01,0.28-0.28,0.28-0.28,0.28h-0.74v1.51h1.01l0,0c0,0,0,0,0.01,0h2.9v-1.51H15.36z"/>
		</g>
	</g>
</g>
</svg>
