<?xml version="1.0" encoding="utf-8"?>
<!-- Generator: Adobe Illustrator 25.4.1, SVG Export Plug-In . SVG Version: 6.00 Build 0)  -->
<svg version="1.1" id="Capa_1" xmlns="http://www.w3.org/2000/svg" xmlns:xlink="http://www.w3.org/1999/xlink" x="0px" y="0px"
	 viewBox="0 0 26.81 26.81" style="enable-background:new 0 0 26.81 26.81;" xml:space="preserve">
<style type="text/css">
	.st0{fill:#FFFFFF;}
</style>
<g>
	<path d="M23.18,13.41c0,5.4-4.38,9.78-9.78,9.78s-9.78-4.38-9.78-9.78S8,3.63,13.4,3.63S23.18,8.01,23.18,13.41z"/>
	<path class="st0" d="M17.16,11.6c-0.05-0.5-0.24-0.94-0.62-1.3c-0.39-0.37-0.87-0.54-1.4-0.57c-0.89-0.05-3.02-0.08-3.76,0.04
		c-0.85,0.14-1.41,0.64-1.65,1.48C9.56,11.9,9.6,14.88,9.7,15.52c0.14,0.87,0.66,1.44,1.53,1.66c0.6,0.15,3.55,0.13,4.21,0.03
		c0.88-0.14,1.44-0.66,1.67-1.52C17.28,15.02,17.22,12.19,17.16,11.6z M16.46,15.4c-0.1,0.66-0.54,1.08-1.21,1.15
		c-0.61,0.07-3.35,0.1-3.92-0.06c-0.54-0.15-0.86-0.53-0.95-1.07c-0.09-0.52-0.11-3.14,0-3.84c0.1-0.66,0.54-1.07,1.21-1.14
		c0.67-0.08,3.1-0.08,3.74,0.01c0.66,0.1,1.07,0.54,1.15,1.21C16.54,12.29,16.56,14.73,16.46,15.4z M13.42,11.54
		c-1.08,0-1.95,0.87-1.95,1.95c0,1.07,0.87,1.95,1.95,1.95s1.95-0.87,1.95-1.95S14.5,11.54,13.42,11.54z M13.4,14.75
		c-0.69,0-1.25-0.57-1.25-1.27c0-0.7,0.56-1.26,1.27-1.26c0.7,0,1.26,0.57,1.26,1.27C14.68,14.19,14.11,14.75,13.4,14.75z
		 M15.9,11.47c0,0.25-0.2,0.45-0.46,0.45c-0.25,0-0.45-0.2-0.46-0.45c0-0.26,0.2-0.46,0.46-0.46S15.9,11.21,15.9,11.47z"/>
</g>
</svg>
