<?xml version="1.0" encoding="utf-8"?>
<!-- Generator: Adobe Illustrator 25.4.1, SVG Export Plug-In . SVG Version: 6.00 Build 0)  -->
<svg version="1.1" id="Capa_1" xmlns="http://www.w3.org/2000/svg" xmlns:xlink="http://www.w3.org/1999/xlink" x="0px" y="0px"
	 viewBox="0 0 26.81 26.81" style="enable-background:new 0 0 26.81 26.81;" xml:space="preserve">
<style type="text/css">
	.st0{fill:#010101;}
</style>
<g>
	<path class="st0" d="M18.08,10.6c0-2.75-2.14-4.99-4.78-4.99S8.52,7.85,8.52,10.6c0,1.03,0.3,1.99,0.82,2.78l0,0v0.02l0,0
		l3.95,6.21l3.98-6.22h-0.01C17.78,12.59,18.08,11.62,18.08,10.6z M13.3,13.37c-1.47,0-2.66-1.25-2.66-2.78s1.19-2.78,2.66-2.78
		c1.48,0,2.66,1.25,2.66,2.78C15.96,12.13,14.78,13.37,13.3,13.37z"/>
</g>
</svg>
