<?xml version="1.0" encoding="utf-8"?>
<!-- Generator: Adobe Illustrator 25.4.1, SVG Export Plug-In . SVG Version: 6.00 Build 0)  -->
<svg version="1.1" id="Capa_1" xmlns="http://www.w3.org/2000/svg" xmlns:xlink="http://www.w3.org/1999/xlink" x="0px" y="0px"
	 viewBox="0 0 26.81 26.81" style="enable-background:new 0 0 26.81 26.81;" xml:space="preserve">
<style type="text/css">
	.st0{fill:#010101;}
</style>
<g>
	<g>
		<path class="st0" d="M9.59,14.68c-0.21-0.21-0.51-0.23-0.68-0.06l-3.57,3.57c-0.17,0.17-0.14,0.48,0.06,0.68l2.54,2.54
			c0.21,0.21,0.51,0.23,0.68,0.06l3.57-3.57c0.17-0.17,0.14-0.48-0.06-0.68L9.59,14.68z M21.41,7.95L18.87,5.4
			c-0.21-0.21-0.51-0.23-0.68-0.06l-3.57,3.57c-0.17,0.17-0.14,0.48,0.06,0.68l2.55,2.54c0.21,0.21,0.51,0.23,0.68,0.06l3.57-3.57
			C21.64,8.46,21.62,8.15,21.41,7.95z"/>
		<path class="st0" d="M20.02,14.82c-0.97-0.72-2.38-0.69-3.6,0c0.3-0.46,0.41-0.83,0.45-1.1c0.03-0.26-0.06-0.51-0.24-0.7
			l-3.37-3.37c-0.56-0.56-1.4-0.64-2.05-0.26l-0.34-0.34c-0.5-0.5-1.3-0.5-1.8,0s-0.5,1.3,0,1.8l0.34,0.34
			c-0.38,0.65-0.3,1.49,0.26,2.05l3.39,3.39c0.17,0.17,0.41,0.27,0.65,0.25c0.25-0.02,0.6-0.12,1.03-0.4c-0.7,1.22-0.72,2.63,0,3.61
			c0.13,0.18,0.37,0.22,0.56,0.11c0.46-0.28,1.37-0.89,2.31-1.76l0.41,0.41c-0.09,0.35-0.01,0.74,0.27,1.02
			c0.41,0.41,1.08,0.41,1.5,0c0.41-0.41,0.41-1.08,0-1.5c-0.28-0.28-0.67-0.36-1.02-0.27l-0.41-0.41c0.85-0.93,1.47-1.85,1.76-2.31
			C20.24,15.2,20.2,14.95,20.02,14.82z M11.39,12.56c-0.1,0.1-0.24,0.15-0.37,0.15c-0.14,0-0.27-0.05-0.37-0.15l-0.32-0.32
			c-0.21-0.21-0.21-0.54,0-0.75s0.54-0.21,0.75,0l0.32,0.32C11.59,12.02,11.59,12.35,11.39,12.56z M13.83,15
			c-0.1,0.1-0.24,0.15-0.37,0.15c-0.14,0-0.27-0.05-0.37-0.15l-1.04-1.04c-0.21-0.21-0.21-0.54,0-0.75s0.54-0.21,0.75,0l1.04,1.04
			C14.04,14.46,14.04,14.79,13.83,15z"/>
	</g>
</g>
</svg>
