<?xml version="1.0" encoding="utf-8"?>
<!-- Generator: Adobe Illustrator 25.4.1, SVG Export Plug-In . SVG Version: 6.00 Build 0)  -->
<svg version="1.1" id="Capa_1" xmlns="http://www.w3.org/2000/svg" xmlns:xlink="http://www.w3.org/1999/xlink" x="0px" y="0px"
	 viewBox="0 0 26.81 26.81" style="enable-background:new 0 0 26.81 26.81;" xml:space="preserve">
<style type="text/css">
	.st0{fill:#FFFFFF;}
</style>
<g>
	<path d="M23.18,13.41c0,5.4-4.38,9.78-9.78,9.78s-9.78-4.38-9.78-9.78S8,3.63,13.4,3.63S23.18,8.01,23.18,13.41z"/>
	<g>
		<g>
			<path class="st0" d="M13.41,19.07c-3.13,0-5.67-2.54-5.67-5.67s2.54-5.67,5.67-5.67s5.67,2.54,5.67,5.67S16.54,19.07,13.41,19.07
				z M13.54,12.56c-2.49,0.75-4.89,0.69-4.97,0.69c-0.01,0.05-0.01,0.1-0.01,0.16c0,1.24,0.47,2.38,1.24,3.23
				c1.32-2.35,3.93-3.2,3.93-3.2c0.07-0.02,0.13-0.04,0.19-0.06C13.81,13.11,13.68,12.84,13.54,12.56z M11.34,9.03
				c-1.35,0.63-2.35,1.88-2.67,3.38c0.13,0,2.15,0.02,4.47-0.59C12.3,10.33,11.41,9.12,11.34,9.03z M14.26,14.19
				c-0.01,0-0.02,0.01-0.03,0.01c0,0-2.87,1-3.8,3.03c-0.04-0.04-0.11-0.08-0.11-0.08c0.84,0.69,1.91,1.11,3.08,1.11
				c0.67,0,1.31-0.14,1.89-0.38C15.22,17.44,14.94,15.96,14.26,14.19z M12.23,8.71l0.01-0.01C12.24,8.71,12.24,8.71,12.23,8.71z
				 M13.41,8.56c-0.39,0-0.77,0.05-1.14,0.14c0.07,0.1,0.99,1.3,1.82,2.82c1.82-0.68,2.51-1.73,2.52-1.75
				C15.75,9.02,14.63,8.56,13.41,8.56z M17.15,10.33c-0.01,0.01-0.79,1.14-2.7,1.92c0.11,0.23,0.22,0.46,0.32,0.7
				c0.04,0.08,0.07,0.17,0.1,0.25c1.67-0.21,3.31,0.15,3.37,0.15C18.23,12.21,17.83,11.16,17.15,10.33z M15.17,13.96
				c0.63,1.75,0.89,3.17,0.94,3.46c1.08-0.73,1.85-1.9,2.07-3.25C18.08,14.14,16.73,13.72,15.17,13.96z"/>
		</g>
	</g>
</g>
</svg>
