<?xml version="1.0" encoding="utf-8"?>
<!-- Generator: Adobe Illustrator 25.4.1, SVG Export Plug-In . SVG Version: 6.00 Build 0)  -->
<svg version="1.1" id="Capa_1" xmlns="http://www.w3.org/2000/svg" xmlns:xlink="http://www.w3.org/1999/xlink" x="0px" y="0px"
	 viewBox="0 0 26.81 26.81" style="enable-background:new 0 0 26.81 26.81;" xml:space="preserve">
<style type="text/css">
	.st0{fill:none;stroke:#010101;stroke-width:1.1289;stroke-linecap:round;stroke-linejoin:round;stroke-miterlimit:10;}
</style>
<g>
	<path class="st0" d="M14,9.16h-1.35c-2.02,0-3.67,1.64-3.67,3.67v6.14h8.68v-6.13C17.66,10.8,16.02,9.16,14,9.16z"/>
	<g>
		<path class="st0" d="M7.15,21.12h12.39c0.17,0,0.29-0.15,0.26-0.32l-0.35-1.68c-0.03-0.12-0.13-0.21-0.26-0.21H7.49
			c-0.12,0-0.23,0.09-0.26,0.21L6.88,20.8C6.86,20.97,6.98,21.12,7.15,21.12z"/>
		<line class="st0" x1="19.89" y1="10.1" x2="22.52" y2="8.22"/>
		<line class="st0" x1="18.66" y1="8.35" x2="20.09" y2="5.69"/>
		<line class="st0" x1="20.72" y1="11.88" x2="23.74" y2="11.83"/>
		<line class="st0" x1="6.92" y1="10.1" x2="4.29" y2="8.22"/>
		<line class="st0" x1="8.15" y1="8.35" x2="6.72" y2="5.69"/>
		<line class="st0" x1="6.09" y1="11.88" x2="3.07" y2="11.83"/>
	</g>
</g>
</svg>
