<?xml version="1.0" encoding="utf-8"?>
<!-- Generator: Adobe Illustrator 25.4.1, SVG Export Plug-In . SVG Version: 6.00 Build 0)  -->
<svg version="1.1" id="Capa_1" xmlns="http://www.w3.org/2000/svg" xmlns:xlink="http://www.w3.org/1999/xlink" x="0px" y="0px"
	 viewBox="0 0 26.81 26.81" style="enable-background:new 0 0 26.81 26.81;" xml:space="preserve">
<style type="text/css">
	.st0{fill:#010101;}
	.st1{fill:#FFFFFF;}
</style>
<g>
	<path class="st0" d="M13.41,5.46c-2.11,0-4.13,0.84-5.62,2.33s-2.33,3.51-2.33,5.62s0.84,4.13,2.33,5.62
		c1.49,1.49,3.51,2.33,5.62,2.33c4.39,0,7.95-3.56,7.95-7.95c0-2.11-0.84-4.13-2.33-5.62C17.54,6.29,15.51,5.46,13.41,5.46
		L13.41,5.46z"/>
	<path class="st1" d="M12.13,14.86h2.29v-0.84c1.54-0.37,2.63-1.62,2.63-3.02c0-1.82-1.47-3.13-3.59-3.13
		c-1.53,0-2.81,0.67-3.71,1.64l1.48,1.53c0.45-0.45,1.11-0.78,1.75-0.78c0.81,0,1.37,0.44,1.37,1c0,0.65-0.92,1.14-2.23,1.17v2.43
		H12.13z"/>
	<path class="st1" d="M13.28,18.95c0.86,0,1.57-0.73,1.57-1.64c0-0.84-0.72-1.57-1.57-1.57c-0.94,0-1.65,0.73-1.65,1.57
		C11.63,18.21,12.35,18.95,13.28,18.95L13.28,18.95z"/>
</g>
</svg>
