<?xml version="1.0" encoding="utf-8"?>
<!-- Generator: Adobe Illustrator 25.4.1, SVG Export Plug-In . SVG Version: 6.00 Build 0)  -->
<svg version="1.1" id="Capa_1" xmlns="http://www.w3.org/2000/svg" xmlns:xlink="http://www.w3.org/1999/xlink" x="0px" y="0px"
	 viewBox="0 0 26.81 26.81" style="enable-background:new 0 0 26.81 26.81;" xml:space="preserve">
<style type="text/css">
	.st0{fill:#010101;}
</style>
<g>
	<g>
		<g>
			<path class="st0" d="M4.36,19.93l11.86-0.01c0.01,0,0.03,0,0.04,0s0.01,0,0.02,0s0.01,0,0.02,0s0.01,0,0.02,0s0.01,0,0.02,0
				s0.01,0,0.02-0.01c0.01,0,0.01,0,0.02-0.01c0.01,0,0.01-0.01,0.02-0.01s0.01-0.01,0.02-0.01s0.01-0.01,0.02-0.01
				s0.01-0.01,0.02-0.01s0.01-0.01,0.02-0.01l0.01-0.01c0.01-0.01,0.01-0.01,0.02-0.02l0.01-0.01l2.21-2.18l0.44,1.12l-0.04,0.01
				c-0.13,0.05-0.2,0.19-0.17,0.33c0.01,0.04,0.02,0.07,0.04,0.11l1.38,3.5c0.16,0.41,0.56,0.68,1.02,0.68l0,0
				c0.15,0,0.29-0.03,0.43-0.08l0.32-0.13c0.58-0.23,0.87-0.87,0.66-1.42l-1.38-3.5c-0.01-0.03-0.03-0.07-0.05-0.1
				c-0.07-0.13-0.22-0.18-0.35-0.13l-0.04,0.01l-0.49-1.24c1.35-1,1.93-2.82,1.28-4.46c-0.27-0.7-0.73-1.27-1.3-1.69l-0.01-6.81
				c0-0.21-0.17-0.39-0.39-0.39L8.21,3.45H8.2c-0.01,0-0.01,0-0.02,0s-0.01,0-0.02,0s-0.01,0-0.02,0s-0.01,0-0.02,0s-0.01,0-0.02,0
				s-0.01,0-0.02,0.01c-0.01,0-0.01,0-0.02,0.01c-0.01,0-0.01,0.01-0.02,0.01S8.03,3.49,8.02,3.49c0.01,0.01,0,0.01-0.01,0.01
				C8.01,3.51,8,3.51,8,3.51c-0.01,0-0.01,0.01-0.02,0.01L7.97,3.53C7.96,3.54,7.95,3.55,7.95,3.55s-0.01,0-0.01,0.01L4.08,7.37l0,0
				c-0.01,0-0.02,0.01-0.02,0.02c0,0,0,0-0.01,0.01c-0.01,0-0.02,0.02-0.02,0.03c0,0.01-0.01,0.01-0.01,0.02
				c0,0.01-0.01,0.01-0.01,0.02C4,7.46,4,7.47,4,7.48S3.99,7.49,3.99,7.5c0,0.01,0,0.01-0.01,0.02c0,0.01-0.01,0.01-0.01,0.02v0.01
				c0,0.01,0,0.02-0.01,0.02c0,0.01,0,0.02-0.01,0.03v0.01c0,0.01,0,0.02,0,0.03l0,0l0.01,11.9C3.97,19.76,4.15,19.93,4.36,19.93z
				 M15.83,19.14L4.75,19.15L4.74,8.03h3.68l0.01,5.99l1.02-0.71l0.79,0.71L11,13.27l1.2,0.74V8.02h3.62v2.75
				c-1.25,1.02-1.76,2.77-1.14,4.35c0.25,0.63,0.65,1.17,1.15,1.57L15.83,19.14z M20.27,16.25c-0.07,0.06-0.15,0.12-0.23,0.17
				s-0.16,0.1-0.24,0.15c-0.01,0.01-0.03,0.02-0.04,0.02c-0.11,0.06-0.23,0.11-0.35,0.16c-0.13,0.05-0.27,0.1-0.41,0.13
				c-0.09,0.02-0.18,0.04-0.28,0.06c-0.09,0.01-0.19,0.03-0.29,0.03c-0.06,0-0.12,0.01-0.18,0.01c-0.01,0-0.02,0-0.03,0l0,0
				c-0.59,0-1.14-0.15-1.62-0.43c-0.29-0.16-0.55-0.37-0.78-0.62c-0.27-0.29-0.48-0.63-0.63-1.02c-0.47-1.19-0.18-2.5,0.63-3.39
				c0.22-0.24,0.48-0.45,0.78-0.62c0.14-0.08,0.28-0.15,0.43-0.21c0.38-0.15,0.78-0.23,1.19-0.23c0.53,0,1.03,0.12,1.47,0.35
				c0.28,0.14,0.55,0.33,0.78,0.55c0.34,0.32,0.61,0.72,0.78,1.17C21.78,13.88,21.35,15.38,20.27,16.25z M20.46,18.24l-0.8,0.31
				v-0.01l-0.45-1.15c0.14-0.04,0.27-0.08,0.41-0.13s0.26-0.11,0.39-0.18L20.46,18.24L20.46,18.24z M21.92,22.65l-0.32,0.13
				c-0.07,0.03-0.15,0.04-0.23,0.04l0,0c-0.23,0-0.43-0.13-0.5-0.33l-1.3-3.32c0.01,0,0.03-0.01,0.04-0.01l1.31-0.52
				c0.01-0.01,0.03-0.01,0.04-0.02l1.3,3.32C22.37,22.22,22.22,22.54,21.92,22.65z M16.61,18.6v-1.43c0.35,0.16,0.73,0.27,1.12,0.32
				L16.61,18.6z M18.22,9.91c-0.47,0-0.94,0.09-1.39,0.26c-0.08,0.03-0.16,0.07-0.23,0.1V7.78l3.09-3.13l0.01,5.55
				C19.24,10.01,18.74,9.91,18.22,9.91z M16.05,7.24h-3.39l2.96-3.03h3.41L16.05,7.24z M8.37,4.22h3.44L8.74,7.25H5.29L8.37,4.22z"
				/>
			<path class="st0" d="M9.3,16.01H5.22c-0.08,0-0.14,0.06-0.14,0.14v2.34c0,0.08,0.06,0.14,0.14,0.14H9.3
				c0.08,0,0.14-0.06,0.14-0.14v-2.34C9.44,16.08,9.38,16.01,9.3,16.01z M9.16,18.36H5.35V16.3h3.81V18.36z"/>
			
				<rect x="5.59" y="16.54" transform="matrix(1 -1.117125e-03 1.117125e-03 1 -0.0194 6.378402e-03)" class="st0" width="0.22" height="1.6"/>
			
				<rect x="8.72" y="16.54" transform="matrix(1 -1.117125e-03 1.117125e-03 1 -0.0194 9.852662e-03)" class="st0" width="0.18" height="1.6"/>
			
				<rect x="5.96" y="16.54" transform="matrix(1 -1.117125e-03 1.117125e-03 1 -0.0194 6.791738e-03)" class="st0" width="0.22" height="1.6"/>
			
				<rect x="6.79" y="16.54" transform="matrix(1 -1.117125e-03 1.117125e-03 1 -0.0194 7.718952e-03)" class="st0" width="0.22" height="1.6"/>
			
				<rect x="7.56" y="16.54" transform="matrix(1 -1.117125e-03 1.117125e-03 1 -0.0194 8.556795e-03)" class="st0" width="0.18" height="1.6"/>
			
				<rect x="7.88" y="16.54" transform="matrix(1 -1.117125e-03 1.117125e-03 1 -0.0194 8.914276e-03)" class="st0" width="0.18" height="1.6"/>
			
				<rect x="7.15" y="16.54" transform="matrix(1 -1.117125e-03 1.117125e-03 1 -0.0194 8.165802e-03)" class="st0" width="0.3" height="1.6"/>
			
				<rect x="6.29" y="16.54" transform="matrix(1 -1.117125e-03 1.117125e-03 1 -0.0194 7.233002e-03)" class="st0" width="0.35" height="1.6"/>
			
				<rect x="8.21" y="16.54" transform="matrix(1 -1.117125e-03 1.117125e-03 1 -0.0194 9.377883e-03)" class="st0" width="0.35" height="1.6"/>
			<path class="st0" d="M19.69,11.58c-0.42-0.29-0.93-0.45-1.47-0.45c-0.32,0-0.64,0.06-0.94,0.18c-0.25,0.1-0.48,0.23-0.68,0.39
				c-0.07,0.05-0.13,0.11-0.19,0.17c-0.06,0.06-0.12,0.12-0.17,0.18c-0.17,0.21-0.31,0.44-0.42,0.69c-0.24,0.6-0.27,1.28-0.01,1.93
				c0.01,0.01,0.01,0.03,0.02,0.04c0.17,0.42,0.44,0.77,0.78,1.04c0.44,0.35,0.99,0.55,1.58,0.56c0.01,0,0.02,0,0.03,0h0.01l0,0l0,0
				c0.08,0,0.17,0,0.25-0.01c0.09-0.01,0.19-0.02,0.28-0.04c0.11-0.02,0.22-0.05,0.32-0.09c0.03-0.01,0.06-0.02,0.09-0.03
				c0.14-0.05,0.26-0.12,0.39-0.19c0.05-0.03,0.11-0.07,0.16-0.1c0.03-0.02,0.05-0.04,0.08-0.06c0.08-0.06,0.15-0.12,0.22-0.19
				c0.08-0.07,0.15-0.15,0.21-0.23c0.09-0.11,0.17-0.23,0.24-0.35c0.05-0.08,0.09-0.17,0.13-0.26c0.28-0.63,0.29-1.34,0.04-1.98
				c-0.05-0.12-0.1-0.24-0.17-0.35C20.27,12.08,20.01,11.8,19.69,11.58z M19.69,12.31c0.18,0.19,0.33,0.41,0.43,0.67
				c0.2,0.51,0.19,1.06-0.03,1.56c-0.1,0.22-0.23,0.43-0.4,0.6c-0.02,0.02-0.04,0.04-0.07,0.07c-0.19,0.18-0.41,0.32-0.66,0.42
				c-0.03,0.01-0.06,0.02-0.09,0.03c-0.21,0.07-0.43,0.11-0.65,0.11l0,0c-0.01,0-0.02,0-0.03,0c-0.64-0.01-1.22-0.31-1.6-0.8
				c-0.11-0.15-0.21-0.31-0.28-0.49c-0.27-0.69-0.14-1.43,0.27-1.98c0.22-0.29,0.52-0.52,0.88-0.66c0.24-0.09,0.49-0.14,0.74-0.14
				C18.79,11.68,19.32,11.91,19.69,12.31z"/>
		</g>
	</g>
</g>
</svg>
