<?xml version="1.0" encoding="utf-8"?>
<!-- Generator: Adobe Illustrator 25.4.1, SVG Export Plug-In . SVG Version: 6.00 Build 0)  -->
<svg version="1.1" id="Capa_1" xmlns="http://www.w3.org/2000/svg" xmlns:xlink="http://www.w3.org/1999/xlink" x="0px" y="0px"
	 viewBox="0 0 26.81 26.81" style="enable-background:new 0 0 26.81 26.81;" xml:space="preserve">
<style type="text/css">
	.st0{fill:#010101;}
</style>
<g>
	<path class="st0" d="M4.58,22.41h9.93l0,0l0,0c0.01,0,0.02,0,0.03,0h0.01c0.01,0,0.01,0,0.02,0s0.01,0,0.02,0s0.01,0,0.02,0
		s0.01,0,0.01-0.01c0,0,0.01,0,0.01-0.01c0,0,0.01,0,0.01-0.01c0,0,0.01,0,0.01-0.01l0.01-0.01l0.01-0.01l0.01-0.01l0.01-0.01
		l0.01-0.01c0,0,0.01,0,0.01-0.01l3.24-3.18l0,0c0.01-0.01,0.01-0.01,0.02-0.02c0,0,0,0,0.01-0.01s0.01-0.02,0.02-0.02
		c0-0.01,0.01-0.01,0.01-0.02c0,0,0-0.01,0.01-0.01c0-0.01,0.01-0.01,0.01-0.02c0,0,0-0.01,0.01-0.01c0,0,0-0.01,0.01-0.01
		c0-0.01,0-0.01,0.01-0.02v-0.01c0-0.01,0-0.01,0-0.02s0-0.02,0-0.03v-0.01c0-0.01,0-0.02,0-0.02l0,0V8.93
		c0-0.18-0.15-0.33-0.33-0.33H7.82H7.81c-0.01,0-0.01,0-0.02,0H7.78c-0.01,0-0.01,0-0.02,0c-0.01,0-0.01,0-0.02,0
		c-0.01,0-0.01,0-0.02,0c-0.01,0-0.01,0-0.02,0.01c-0.01,0-0.01,0-0.02,0.01c0,0-0.01,0-0.01,0.01c-0.01,0-0.01,0-0.01,0.01
		L7.65,8.65L7.64,8.66L7.63,8.67L7.62,8.68c-0.01,0-0.01,0.01-0.01,0.01S7.6,8.69,7.6,8.7l-3.24,3.18l0,0
		c-0.01,0.01-0.01,0.01-0.02,0.02c0,0,0,0-0.01,0.01s-0.01,0.02-0.02,0.02c0,0.01-0.01,0.01-0.01,0.02c0,0,0,0.01-0.01,0.01
		c0,0.01-0.01,0.01-0.01,0.02c0,0,0,0.01-0.01,0.01c0,0,0,0.01-0.01,0.01c0,0.01,0,0.01-0.01,0.02v0.01c0,0.01,0,0.01,0,0.02
		s0,0.02,0,0.03v0.01c0,0.01,0,0.02,0,0.02l0,0v9.97C4.25,22.26,4.4,22.41,4.58,22.41z M14.19,21.76H4.9v-9.32h3.08v5.02l0.86-0.6
		l0.66,0.6l0.65-0.62l1,0.62v-5.02h3.04V21.76z M14.84,12.25l2.59-2.62v9.14l-2.59,2.54V12.25z M14.38,11.79h-2.84l2.48-2.53h2.86
		L14.38,11.79z M7.95,9.25h2.88l-2.57,2.53H5.37L7.95,9.25z"/>
	<path class="st0" d="M22.23,4.41H12.3h-0.01c-0.01,0-0.01,0-0.02,0h-0.01c-0.01,0-0.01,0-0.02,0s-0.01,0-0.02,0s-0.01,0-0.02,0
		s-0.01,0-0.02,0.01c-0.01,0-0.01,0-0.02,0.01c0,0-0.01,0-0.01,0.01c-0.01,0-0.01,0-0.01,0.01l-0.01,0.01l-0.01,0.01l-0.01,0.01
		L12.1,4.49c-0.01,0-0.01,0.01-0.01,0.01s-0.01,0-0.01,0.01L8.83,7.68l0,0C8.82,7.69,8.82,7.7,8.81,7.7c0,0,0,0-0.01,0.01
		c0,0.01,0,0.01-0.01,0.02c0,0.01-0.01,0.01-0.01,0.02c0,0,0,0.01-0.01,0.01c0,0.01-0.01,0.01-0.01,0.02c0,0,0,0.01-0.01,0.01
		c0,0,0,0.01-0.01,0.01c0,0.01,0,0.01-0.01,0.02v0.01c0,0.01,0,0.01,0,0.02c0,0.01,0,0.02,0,0.03v0.01c0,0.01,0,0.02,0,0.02l0,0
		v1.03h0.65v-0.7h3.08h3.17h3.04v9.32h-0.82v0.67L19,18.21c0.01,0,0.02,0,0.03,0h0.01c0.01,0,0.01,0,0.02,0s0.01,0,0.02,0
		s0.01,0,0.02,0s0.01,0,0.01-0.01c0.01,0,0.01,0,0.01-0.01c0,0,0.01,0,0.01-0.01c0,0,0.01,0,0.01-0.01l0.01-0.01l0.01-0.01
		l0.01-0.01l0.01-0.01l0.01-0.01c0,0,0.01,0,0.01-0.01l3.24-3.18l0,0c0.01-0.01,0.01-0.01,0.02-0.02c0,0,0,0,0.01-0.01
		s0.01-0.02,0.02-0.02c0-0.01,0.01-0.01,0.01-0.02c0,0,0-0.01,0.01-0.01c0-0.01,0.01-0.01,0.01-0.02c0,0,0-0.01,0.01-0.01
		c0,0,0-0.01,0.01-0.01c0-0.01,0-0.01,0.01-0.02v-0.01c0-0.01,0-0.01,0-0.02s0-0.02,0-0.03v-0.01c0-0.01,0-0.02,0-0.02l0,0V4.73
		C22.56,4.55,22.41,4.41,22.23,4.41z M12.74,7.59H9.85l2.58-2.53h2.88L12.74,7.59z M18.86,7.59h-2.84l2.48-2.53h2.86L18.86,7.59z
		 M21.91,14.56l-2.59,2.54V8.05l2.59-2.62V14.56z"/>
</g>
</svg>
