<?xml version="1.0" encoding="utf-8"?>
<!-- Generator: Adobe Illustrator 25.4.1, SVG Export Plug-In . SVG Version: 6.00 Build 0)  -->
<svg version="1.1" id="Capa_1" xmlns="http://www.w3.org/2000/svg" xmlns:xlink="http://www.w3.org/1999/xlink" x="0px" y="0px"
	 viewBox="0 0 26.81 26.81" style="enable-background:new 0 0 26.81 26.81;" xml:space="preserve">
<style type="text/css">
	.st0{fill:#010101;}
</style>
<g>
	<g>
		<g>
			<g>
				<path class="st0" d="M13.41,12.72c-0.05,0-0.09-0.01-0.14-0.03L5.24,9.43C5.1,9.37,5.01,9.24,5.01,9.09S5.1,8.8,5.24,8.75
					l3.02-1.23c0.19-0.08,0.4,0.01,0.48,0.2c0.08,0.19-0.01,0.4-0.2,0.48L6.36,9.09l7.05,2.86l7.89-3.21
					c0.19-0.08,0.4,0.01,0.48,0.2s-0.01,0.4-0.2,0.48l-8.03,3.26C13.5,12.71,13.45,12.72,13.41,12.72z"/>
			</g>
			<g>
				<path class="st0" d="M10.74,15.84c-0.14,0-0.28-0.03-0.42-0.08l-6.6-2.68c-0.32-0.13-0.56-0.4-0.65-0.73
					c-0.09-0.33-0.03-0.68,0.17-0.96l1.84-2.52c0.1-0.14,0.28-0.19,0.44-0.12l8.03,3.26c0.11,0.04,0.18,0.13,0.22,0.24
					c0.03,0.11,0.01,0.23-0.06,0.32l-2.06,2.82C11.43,15.68,11.09,15.84,10.74,15.84z M5.51,9.54l-1.67,2.29
					c-0.07,0.09-0.09,0.21-0.06,0.33c0.03,0.11,0.11,0.2,0.22,0.25l6.6,2.68c0.16,0.06,0.34,0.01,0.45-0.13l1.78-2.44L5.51,9.54z"/>
			</g>
			<g>
				<path class="st0" d="M16.07,15.84c-0.35,0-0.68-0.16-0.9-0.46l-2.06-2.82c-0.07-0.09-0.09-0.21-0.06-0.32s0.11-0.2,0.22-0.24
					l8.03-3.26c0.16-0.06,0.34-0.01,0.44,0.12l1.84,2.52c0.2,0.28,0.27,0.63,0.17,0.96c-0.09,0.33-0.33,0.6-0.65,0.73l-6.6,2.68
					C16.35,15.82,16.21,15.84,16.07,15.84z M13.98,12.51l1.78,2.44c0.1,0.14,0.29,0.19,0.45,0.13l6.6-2.68
					c0.11-0.04,0.19-0.13,0.22-0.25c0.03-0.11,0.01-0.23-0.06-0.33L21.3,9.53L13.98,12.51z"/>
			</g>
			<g>
				<path class="st0" d="M13.41,23.41c-0.43,0-0.86-0.08-1.26-0.25l-6.08-2.47c-0.64-0.26-1.05-0.87-1.05-1.56v-5.78
					c0-0.2,0.17-0.37,0.37-0.37s0.37,0.17,0.37,0.37v5.78c0,0.39,0.23,0.73,0.59,0.88l6.08,2.47c0.64,0.26,1.34,0.26,1.97,0
					l6.08-2.47c0.36-0.15,0.59-0.49,0.59-0.88v-5.78c0-0.2,0.17-0.37,0.37-0.37s0.37,0.17,0.37,0.37v5.78c0,0.69-0.41,1.3-1.05,1.56
					l-6.08,2.47C14.26,23.33,13.83,23.41,13.41,23.41z"/>
			</g>
			<g>
				<path class="st0" d="M13.41,23.41c-0.2,0-0.37-0.17-0.37-0.37V12.35c0-0.2,0.16-0.37,0.37-0.37c0.2,0,0.37,0.17,0.37,0.37v10.69
					C13.78,23.25,13.61,23.41,13.41,23.41z"/>
			</g>
		</g>
		<g>
			<path class="st0" d="M13.41,9.92c-0.08,0-0.16-0.03-0.23-0.08L9.11,6.59c-0.12-0.1-0.17-0.26-0.12-0.41
				c0.05-0.15,0.19-0.25,0.35-0.25h2.18V3.77c0-0.2,0.16-0.37,0.37-0.37c0.2,0,0.37,0.17,0.37,0.37V6.3c0,0.2-0.17,0.37-0.37,0.37
				h-1.5l3.01,2.41l3.01-2.41h-1.5c-0.2,0-0.37-0.17-0.37-0.37V3.77c0-0.2,0.17-0.37,0.37-0.37s0.37,0.17,0.37,0.37v2.16h2.18
				c0.16,0,0.3,0.1,0.35,0.25c0.05,0.15,0,0.31-0.12,0.41l-4.07,3.25C13.57,9.89,13.49,9.92,13.41,9.92z"/>
		</g>
		<g>
			<path class="st0" d="M5.38,9.46c-0.15,0-0.28-0.09-0.34-0.23c-0.08-0.19,0.01-0.4,0.2-0.48l3.02-1.23
				c0.19-0.08,0.4,0.01,0.48,0.2c0.08,0.19-0.01,0.4-0.2,0.48L5.52,9.43C5.47,9.45,5.42,9.46,5.38,9.46z"/>
		</g>
		<g>
			<path class="st0" d="M21.43,9.46c-0.05,0-0.09-0.01-0.14-0.03L18.27,8.2c-0.19-0.08-0.28-0.29-0.2-0.48s0.29-0.28,0.48-0.2
				l3.02,1.23c0.19,0.08,0.28,0.29,0.2,0.48C21.72,9.37,21.58,9.46,21.43,9.46z"/>
		</g>
	</g>
</g>
</svg>
