<?xml version="1.0" encoding="utf-8"?>
<!-- Generator: Adobe Illustrator 25.4.1, SVG Export Plug-In . SVG Version: 6.00 Build 0)  -->
<svg version="1.1" id="Capa_1" xmlns="http://www.w3.org/2000/svg" xmlns:xlink="http://www.w3.org/1999/xlink" x="0px" y="0px"
	 viewBox="0 0 26.81 26.81" style="enable-background:new 0 0 26.81 26.81;" xml:space="preserve">
<style type="text/css">
	.st0{fill:#010101;}
</style>
<g>
	<g>
		<path class="st0" d="M9.21,6.48H7.78c-0.53,0-0.96,0.43-0.96,0.96v14.1c0,0.53,0.43,0.96,0.96,0.96h11.25
			c0.53,0,0.96-0.43,0.96-0.96V7.44c0-0.53-0.43-0.96-0.96-0.96H17.6c-0.03-0.53-0.44-0.95-0.94-0.95h-0.93
			c-0.12-0.69-0.72-1.21-1.44-1.21h-1.55c-0.72,0-1.32,0.52-1.44,1.21h-1.14C9.65,5.53,9.24,5.95,9.21,6.48z M17.56,7.95h0.7V20.4
			H8.54V7.95h0.71c0.12,0.4,0.48,0.7,0.9,0.7h6.5C17.08,8.65,17.44,8.35,17.56,7.95z M19.3,7.44v14.1c0,0.15-0.12,0.27-0.27,0.27
			H7.78c-0.15,0-0.27-0.12-0.27-0.27V7.44c0-0.15,0.12-0.27,0.27-0.27h1.43v0.09H8.2c-0.19,0-0.34,0.15-0.34,0.34v13.14
			c0,0.19,0.15,0.34,0.34,0.34h10.4c0.19,0,0.34-0.15,0.34-0.34V7.6c0-0.19-0.15-0.34-0.34-0.34h-1v-0.1h1.43
			C19.18,7.16,19.3,7.29,19.3,7.44z M9.9,6.53c0-0.17,0.12-0.31,0.26-0.31h1.46l0,0l0,0c0.19,0,0.34-0.15,0.34-0.34v-0.1
			c0-0.43,0.35-0.78,0.78-0.78h1.55c0.43,0,0.78,0.35,0.78,0.78v0.09l0,0c0,0.19,0.15,0.34,0.34,0.34l0,0h1.25
			c0.14,0,0.26,0.14,0.26,0.31v0.29l0,0l0,0v0.82c0,0.17-0.12,0.31-0.26,0.31h-6.5c-0.14,0-0.26-0.14-0.26-0.31V6.82V6.53z"/>
		<path class="st0" d="M13.34,7.08c0.55,0,1.01-0.45,1.01-1.01c0-0.55-0.45-1.01-1.01-1.01c-0.55,0-1.01,0.45-1.01,1.01
			S12.78,7.08,13.34,7.08z M13.34,5.76c0.18,0,0.32,0.14,0.32,0.32c0,0.18-0.14,0.32-0.32,0.32c-0.18,0-0.32-0.14-0.32-0.32
			S13.16,5.76,13.34,5.76z"/>
		<path class="st0" d="M9.1,10.54c0,0.19,0.15,0.34,0.34,0.34h7.77c0.19,0,0.34-0.15,0.34-0.34c0-0.19-0.15-0.34-0.34-0.34H9.44
			C9.25,10.19,9.1,10.35,9.1,10.54z"/>
		<path class="st0" d="M14.1,12.58H9.44c-0.19,0-0.34,0.15-0.34,0.34c0,0.19,0.15,0.34,0.34,0.34h4.66c0.19,0,0.34-0.15,0.34-0.34
			S14.29,12.58,14.1,12.58z"/>
		<path class="st0" d="M14.1,15.2H9.44c-0.19,0-0.34,0.15-0.34,0.34s0.15,0.34,0.34,0.34h4.66c0.19,0,0.34-0.15,0.34-0.34
			S14.29,15.2,14.1,15.2z"/>
		<path class="st0" d="M14.1,17.82H9.44c-0.19,0-0.34,0.15-0.34,0.34s0.15,0.34,0.34,0.34h4.66c0.19,0,0.34-0.15,0.34-0.34
			S14.29,17.82,14.1,17.82z"/>
		<path class="st0" d="M16.67,11.81l-0.87,0.91l-0.24-0.33c-0.11-0.15-0.33-0.19-0.48-0.07c-0.15,0.11-0.19,0.33-0.07,0.48
			l0.48,0.66c0.06,0.08,0.15,0.13,0.26,0.14c0.01,0,0.01,0,0.02,0c0.09,0,0.18-0.04,0.25-0.11l1.16-1.21
			c0.13-0.14,0.13-0.36-0.01-0.49C17.02,11.67,16.8,11.67,16.67,11.81z"/>
		<path class="st0" d="M16.67,14.55l-0.87,0.91l-0.24-0.33c-0.11-0.15-0.33-0.19-0.48-0.07c-0.15,0.11-0.19,0.33-0.07,0.48
			l0.48,0.66c0.06,0.08,0.15,0.13,0.26,0.14c0.01,0,0.01,0,0.02,0c0.09,0,0.18-0.04,0.25-0.11l1.16-1.21
			c0.13-0.14,0.13-0.36-0.01-0.49C17.02,14.4,16.8,14.41,16.67,14.55z"/>
		<path class="st0" d="M16.67,17.28l-0.87,0.91l-0.24-0.33c-0.11-0.15-0.33-0.19-0.48-0.07c-0.15,0.11-0.19,0.33-0.07,0.48
			l0.48,0.66c0.06,0.08,0.15,0.13,0.26,0.14c0.01,0,0.01,0,0.02,0c0.09,0,0.18-0.04,0.25-0.11l1.16-1.21
			c0.13-0.14,0.13-0.36-0.01-0.49C17.02,17.14,16.8,17.14,16.67,17.28z"/>
	</g>
</g>
</svg>
