<?xml version="1.0" encoding="utf-8"?>
<!-- Generator: Adobe Illustrator 25.4.1, SVG Export Plug-In . SVG Version: 6.00 Build 0)  -->
<svg version="1.1" id="Capa_1" xmlns="http://www.w3.org/2000/svg" xmlns:xlink="http://www.w3.org/1999/xlink" x="0px" y="0px"
	 viewBox="0 0 26.81 26.81" style="enable-background:new 0 0 26.81 26.81;" xml:space="preserve">
<style type="text/css">
	.st0{fill:#010101;}
</style>
<g>
	<path class="st0" d="M10.9,8.46l0.56-0.56c0.1-0.1,0.1-0.26,0-0.36c-0.1-0.1-0.26-0.1-0.36,0L10.54,8.1L9.98,7.55
		c-0.1-0.1-0.26-0.1-0.36,0c-0.1,0.1-0.1,0.26,0,0.36l0.56,0.56L9.62,9.03c-0.1,0.1-0.1,0.26,0,0.36C9.67,9.43,9.74,9.46,9.8,9.46
		s0.13-0.02,0.18-0.07l0.56-0.56l0.56,0.56c0.05,0.05,0.11,0.07,0.18,0.07c0.06,0,0.13-0.02,0.18-0.07c0.1-0.1,0.1-0.26,0-0.36
		L10.9,8.46z"/>
	<g>
		<g>
			<path class="st0" d="M12.51,11.1H8.57c-0.35,0-0.64-0.29-0.64-0.64V6.52c0-0.35,0.29-0.64,0.64-0.64h3.94
				c0.35,0,0.64,0.29,0.64,0.64v3.94C13.15,10.81,12.86,11.1,12.51,11.1z M9.1,10.1h2.88c0.09,0,0.17-0.07,0.17-0.17V7.05
				c0-0.09-0.07-0.17-0.17-0.17H9.1c-0.09,0-0.17,0.07-0.17,0.17v2.88C8.94,10.02,9.01,10.1,9.1,10.1z"/>
		</g>
	</g>
	<g>
		<g>
			<g>
				<path class="st0" d="M18.33,14.19h-4.47c-0.22,0-0.39-0.17-0.39-0.39s0.17-0.39,0.39-0.39h4.47c0.22,0,0.39,0.17,0.39,0.39
					C18.72,14.01,18.55,14.19,18.33,14.19z"/>
			</g>
		</g>
	</g>
	<g>
		<g>
			<g>
				<path class="st0" d="M18.38,15.88h-1.81c-0.22,0-0.39-0.17-0.39-0.39s0.17-0.39,0.39-0.39h1.81c0.22,0,0.39,0.17,0.39,0.39
					C18.77,15.7,18.59,15.88,18.38,15.88z"/>
			</g>
		</g>
	</g>
	<g>
		<g>
			<g>
				<path class="st0" d="M18.38,18.69h-1.81c-0.22,0-0.39-0.17-0.39-0.39s0.17-0.39,0.39-0.39h1.81c0.22,0,0.39,0.17,0.39,0.39
					C18.77,18.51,18.59,18.69,18.38,18.69z"/>
			</g>
		</g>
	</g>
	<path class="st0" d="M20.59,9.16c0-0.13-0.06-0.24-0.15-0.31l-4.58-4.58l0,0c-0.02-0.02-0.05-0.04-0.08-0.06
		c-0.01,0-0.02-0.01-0.02-0.01c-0.03-0.01-0.06-0.03-0.09-0.03l0,0c-0.02,0-0.05-0.01-0.07-0.01H7.72c-0.82,0-1.49,0.67-1.49,1.49
		v12.68v0.56v2.99c0,0.43,0.35,0.77,0.77,0.77h12.82c0.43,0,0.77-0.35,0.77-0.77V9.21C20.59,9.2,20.59,9.18,20.59,9.16z M18.33,8.77
		h-1.98c-0.21,0-0.38-0.17-0.38-0.38V6.41c0-0.34,0.41-0.51,0.65-0.27l1.98,1.98C18.84,8.36,18.67,8.77,18.33,8.77z M7.38,21.87
		C7.17,21.87,7,21.7,7,21.49v-2.61v-0.55V5.32c0-0.21,0.17-0.38,0.38-0.38h7.42c0.21,0,0.38,0.17,0.38,0.38v3.46
		c0,0.43,0.35,0.77,0.77,0.77h3.46c0.21,0,0.38,0.17,0.38,0.38v11.56c0,0.21-0.17,0.38-0.38,0.38H7.38z"/>
	<g>
		<g>
			<path class="st0" d="M12.68,14.19h-0.67c-0.22,0-0.39-0.17-0.39-0.39s0.17-0.39,0.39-0.39h0.67c0.22,0,0.39,0.17,0.39,0.39
				C13.07,14.01,12.9,14.19,12.68,14.19z"/>
		</g>
	</g>
	<g>
		<g>
			<path class="st0" d="M18.37,17.26H17.7c-0.22,0-0.39-0.17-0.39-0.39s0.17-0.39,0.39-0.39h0.67c0.22,0,0.39,0.17,0.39,0.39
				C18.75,17.09,18.58,17.26,18.37,17.26z"/>
		</g>
	</g>
	<g>
		<g>
			<path class="st0" d="M16.52,17.26h-0.67c-0.22,0-0.39-0.17-0.39-0.39s0.17-0.39,0.39-0.39h0.67c0.22,0,0.39,0.17,0.39,0.39
				S16.74,17.26,16.52,17.26z"/>
		</g>
	</g>
	<g>
		<g>
			<path class="st0" d="M14.56,17.26H11.1c-0.22,0-0.39-0.17-0.39-0.39s0.17-0.39,0.39-0.39h3.45c0.22,0,0.39,0.17,0.39,0.39
				C14.95,17.09,14.77,17.26,14.56,17.26z"/>
		</g>
	</g>
	<g>
		<g>
			<path class="st0" d="M15.36,15.88h-5.03c-0.22,0-0.39-0.17-0.39-0.39s0.17-0.39,0.39-0.39h5.03c0.22,0,0.39,0.17,0.39,0.39
				C15.75,15.7,15.57,15.88,15.36,15.88z"/>
		</g>
	</g>
</g>
</svg>
