<?xml version="1.0" encoding="utf-8"?>
<!-- Generator: Adobe Illustrator 25.4.1, SVG Export Plug-In . SVG Version: 6.00 Build 0)  -->
<svg version="1.1" id="Capa_1" xmlns="http://www.w3.org/2000/svg" xmlns:xlink="http://www.w3.org/1999/xlink" x="0px" y="0px"
	 viewBox="0 0 26.81 26.81" style="enable-background:new 0 0 26.81 26.81;" xml:space="preserve">
<style type="text/css">
	.st0{fill:#010101;}
</style>
<g>
	<g>
		<g>
			<path class="st0" d="M13.4,13.45c-0.05,0-0.09-0.01-0.13-0.03l-7.66-3.11c-0.13-0.05-0.22-0.18-0.22-0.33
				c0-0.14,0.09-0.27,0.22-0.33l2.88-1.17c0.18-0.07,0.39,0.01,0.46,0.19c0.07,0.18-0.01,0.39-0.19,0.46L6.68,9.98l6.72,2.73
				l7.52-3.06c0.18-0.07,0.39,0.01,0.46,0.19c0.07,0.18-0.01,0.39-0.19,0.46l-7.66,3.11C13.49,13.45,13.45,13.45,13.4,13.45z"/>
		</g>
		<g>
			<path class="st0" d="M10.86,16.44c-0.13,0-0.27-0.03-0.4-0.08l-6.3-2.56c-0.31-0.12-0.53-0.38-0.62-0.69
				c-0.09-0.32-0.03-0.65,0.16-0.92l1.76-2.4c0.1-0.13,0.27-0.18,0.42-0.12l7.66,3.11c0.1,0.04,0.18,0.13,0.21,0.23
				c0.03,0.1,0.01,0.22-0.05,0.3L11.72,16C11.52,16.28,11.19,16.44,10.86,16.44z M5.87,10.42L4.28,12.6
				c-0.07,0.09-0.09,0.2-0.06,0.31c0.03,0.11,0.11,0.19,0.21,0.24l6.3,2.56c0.15,0.06,0.33,0.01,0.43-0.12l1.7-2.33L5.87,10.42z"/>
		</g>
		<g>
			<path class="st0" d="M15.95,16.44c-0.33,0-0.65-0.16-0.86-0.44l-1.97-2.69c-0.06-0.09-0.08-0.2-0.05-0.3
				c0.03-0.1,0.11-0.19,0.21-0.23l7.66-3.11c0.15-0.06,0.32-0.01,0.42,0.12l1.76,2.4c0.19,0.27,0.25,0.6,0.16,0.92
				s-0.32,0.57-0.62,0.69l-6.3,2.56C16.22,16.41,16.08,16.44,15.95,16.44z M13.95,13.26l1.7,2.33c0.1,0.13,0.27,0.18,0.43,0.12
				l6.3-2.56c0.1-0.04,0.18-0.13,0.21-0.24c0.03-0.11,0.01-0.22-0.06-0.31l-1.59-2.18L13.95,13.26z"/>
		</g>
		<g>
			<path class="st0" d="M13.4,23.65c-0.41,0-0.82-0.08-1.21-0.24l-5.8-2.36c-0.61-0.25-1-0.83-1-1.49v-5.51
				c0-0.19,0.16-0.35,0.35-0.35s0.35,0.16,0.35,0.35v5.51c0,0.37,0.22,0.7,0.56,0.84l5.8,2.36c0.61,0.25,1.28,0.25,1.88,0l5.8-2.36
				c0.34-0.14,0.56-0.47,0.56-0.84v-5.51c0-0.19,0.16-0.35,0.35-0.35s0.35,0.16,0.35,0.35v5.51c0,0.66-0.39,1.24-1,1.49l-5.8,2.36
				C14.22,23.58,13.81,23.65,13.4,23.65z"/>
		</g>
		<g>
			<path class="st0" d="M13.4,23.65c-0.19,0-0.35-0.16-0.35-0.35V13.1c0-0.19,0.16-0.35,0.35-0.35s0.35,0.16,0.35,0.35v10.2
				C13.76,23.5,13.6,23.65,13.4,23.65z"/>
		</g>
	</g>
	<g>
		<path class="st0" d="M13.4,3.16c0.08,0,0.16,0.03,0.22,0.08l3.88,3.1c0.12,0.09,0.16,0.25,0.11,0.39s-0.18,0.24-0.33,0.24H15.2
			v2.06c0,0.19-0.16,0.35-0.35,0.35S14.5,9.22,14.5,9.03V6.61c0-0.19,0.16-0.35,0.35-0.35h1.43l-2.87-2.3l-2.87,2.3h1.43
			c0.19,0,0.35,0.16,0.35,0.35v2.41c0,0.19-0.16,0.35-0.35,0.35s-0.35-0.16-0.35-0.35V6.96H9.54c-0.15,0-0.28-0.09-0.33-0.24
			c-0.05-0.14,0-0.3,0.11-0.39l3.88-3.1C13.24,3.18,13.33,3.16,13.4,3.16z"/>
	</g>
	<g>
		<path class="st0" d="M5.74,10.34c-0.14,0-0.27-0.08-0.33-0.22C5.34,9.94,5.42,9.73,5.6,9.66l2.88-1.17
			C8.66,8.42,8.87,8.5,8.94,8.68c0.07,0.18-0.01,0.39-0.19,0.46l-2.88,1.17C5.84,10.33,5.79,10.34,5.74,10.34z"/>
	</g>
	<g>
		<path class="st0" d="M21.06,10.34c-0.04,0-0.09-0.01-0.13-0.03l-2.88-1.17c-0.18-0.07-0.27-0.28-0.19-0.46
			c0.07-0.18,0.28-0.27,0.46-0.19l2.88,1.17c0.18,0.07,0.27,0.28,0.19,0.46C21.33,10.26,21.19,10.34,21.06,10.34z"/>
	</g>
</g>
</svg>
