<?xml version="1.0" encoding="utf-8"?>
<!-- Generator: Adobe Illustrator 25.4.1, SVG Export Plug-In . SVG Version: 6.00 Build 0)  -->
<svg version="1.1" id="Capa_1" xmlns="http://www.w3.org/2000/svg" xmlns:xlink="http://www.w3.org/1999/xlink" x="0px" y="0px"
	 viewBox="0 0 26.81 26.81" style="enable-background:new 0 0 26.81 26.81;" xml:space="preserve">
<style type="text/css">
	.st0{fill:#010101;}
</style>
<g>
	<g>
		<path class="st0" d="M12.9,6.09c-2.47,0.26-4.34,2.64-4.12,5.12c0.28,3.25,3.27,5.67,4.29,6.41c0.2,0.15,0.47,0.14,0.67-0.01
			c1.06-0.83,4.33-3.64,4.33-6.89C18.06,7.98,15.7,5.79,12.9,6.09z M13.41,12.56c-1.02,0-1.85-0.83-1.85-1.85s0.83-1.85,1.85-1.85
			s1.85,0.83,1.85,1.85C15.26,11.74,14.43,12.56,13.41,12.56z"/>
		<path class="st0" d="M19.1,19.7l-0.76-3.46c-0.09-0.4-0.44-0.68-0.84-0.68h-0.24c-0.68,0.91-1.61,1.88-2.87,2.87
			c-0.28,0.22-0.63,0.34-0.99,0.34c-0.34,0-0.67-0.11-0.94-0.31c-0.71-0.52-1.95-1.52-2.98-2.9H9.29c-0.41,0-0.76,0.28-0.84,0.68
			L7.71,19.7C7.59,20.24,8,20.75,8.55,20.75h9.71C18.81,20.75,19.22,20.24,19.1,19.7z"/>
	</g>
</g>
<text transform="matrix(1 0 0 1 2582.1716 -586.9688)" style="fill:#636261; font-family:'MyriadStd-Sketch'; font-size:10.5774px;">11-July-2022</text>
</svg>
