<?xml version="1.0" encoding="utf-8"?>
<!-- Generator: Adobe Illustrator 25.4.1, SVG Export Plug-In . SVG Version: 6.00 Build 0)  -->
<svg version="1.1" id="Capa_1" xmlns="http://www.w3.org/2000/svg" xmlns:xlink="http://www.w3.org/1999/xlink" x="0px" y="0px"
	 viewBox="0 0 26.81 26.81" style="enable-background:new 0 0 26.81 26.81;" xml:space="preserve">
<style type="text/css">
	.st0{fill:#010101;}
</style>
<g>
	<path class="st0" d="M12.08,11.05c0.63-0.74-0.06-1.71-0.48-2.37c-0.24-0.38-0.59-0.92-1.09-0.99c-0.47-0.05-0.9,0.47-1.21,0.76
		c-0.75,0.68-1.17,1.57-1.21,2.58c0.01,0.12,0.01,0.31-0.01,0.13c0.07,0.61,0.14,1.18,0.36,1.76c0.2,0.54,0.47,1.04,0.78,1.53
		c0.67,1.01,1.45,1.99,2.37,2.81c0.9,0.8,1.91,1.51,3.11,1.77c1.12,0.23,2.22-0.01,3.11-0.74c0.32-0.26,0.91-0.64,0.94-1.1
		c0.02-0.46-0.34-0.82-0.65-1.1c-0.67-0.6-1.65-1.59-2.56-0.87c-0.35,0.29-0.73,0.83-1.2,0.9c-0.47,0.08-0.92-0.26-1.26-0.53
		c-0.76-0.62-1.5-1.46-1.95-2.34c-0.19-0.39-0.36-0.9-0.08-1.29C11.31,11.6,11.78,11.41,12.08,11.05z"/>
</g>
</svg>
