<?xml version="1.0" encoding="utf-8"?>
<!-- Generator: Adobe Illustrator 25.4.1, SVG Export Plug-In . SVG Version: 6.00 Build 0)  -->
<svg version="1.1" id="Capa_1" xmlns="http://www.w3.org/2000/svg" xmlns:xlink="http://www.w3.org/1999/xlink" x="0px" y="0px"
	 viewBox="0 0 26.81 26.81" style="enable-background:new 0 0 26.81 26.81;" xml:space="preserve">
<style type="text/css">
	.st0{fill:#010101;}
</style>
<text transform="matrix(1 0 0 1 2615.0498 -714.9688)" style="fill:#636261; font-family:'MyriadStd-Sketch'; font-size:10.5774px;">11-July-2022</text>
<g>
	<g>
		<g>
			<path class="st0" d="M13.41,11.93c-0.04,0-0.09-0.01-0.13-0.02L9.83,10.5c-0.13-0.05-0.21-0.17-0.21-0.31S9.7,9.93,9.83,9.88
				l3-1.21c0.38-0.15,0.79-0.15,1.16,0l2.99,1.22c0.13,0.05,0.21,0.17,0.21,0.31s-0.08,0.26-0.21,0.31l-3.45,1.4
				C13.49,11.92,13.45,11.93,13.41,11.93z M10.84,10.19l2.57,1.05l2.57-1.04l-2.24-0.91c-0.21-0.09-0.45-0.09-0.66,0
				C13.08,9.28,10.84,10.19,10.84,10.19z"/>
		</g>
		<g>
			<path class="st0" d="M13.4,16.53c-0.21,0-0.41-0.04-0.61-0.12l-2.61-1.07c-0.34-0.14-0.56-0.47-0.56-0.83l0.01-4.32
				c0-0.18,0.15-0.33,0.33-0.33s0.33,0.15,0.33,0.33l-0.01,4.32c0,0.1,0.06,0.18,0.15,0.22l2.61,1.07c0.23,0.09,0.49,0.09,0.72,0
				l2.62-1.06c0.09-0.04,0.15-0.12,0.15-0.22l0.01-4.32c0-0.18,0.15-0.33,0.33-0.33s0.33,0.15,0.33,0.33l-0.01,4.32
				c0,0.37-0.22,0.69-0.56,0.83l-2.62,1.06C13.81,16.49,13.6,16.53,13.4,16.53z"/>
		</g>
		<g>
			<path class="st0" d="M13.4,16.52c-0.18,0-0.33-0.15-0.33-0.33l0.01-4.6c0-0.18,0.15-0.33,0.33-0.33s0.33,0.15,0.33,0.33
				l-0.01,4.6C13.73,16.38,13.58,16.52,13.4,16.52z"/>
		</g>
		<g>
			<path class="st0" d="M11.74,11.25c-0.13,0-0.26-0.08-0.31-0.21c-0.07-0.17,0.01-0.36,0.18-0.43l3.45-1.4
				c0.17-0.07,0.36,0.01,0.43,0.18c0.07,0.17-0.01,0.36-0.18,0.43l-3.45,1.4C11.83,11.24,11.78,11.25,11.74,11.25z"/>
		</g>
		<g>
			<path class="st0" d="M11.74,12.25c-0.18,0-0.33-0.15-0.33-0.33v-1.01c0-0.18,0.15-0.33,0.33-0.33s0.33,0.15,0.33,0.33v1.01
				C12.07,12.1,11.92,12.25,11.74,12.25z"/>
		</g>
		<g>
			<path class="st0" d="M11.02,14.71c-0.04,0-0.08-0.01-0.13-0.02l-0.25-0.1c-0.17-0.07-0.25-0.26-0.18-0.43s0.26-0.25,0.43-0.18
				l0.25,0.1c0.17,0.07,0.25,0.26,0.18,0.43C11.28,14.63,11.15,14.71,11.02,14.71z"/>
		</g>
	</g>
	<g>
		<path class="st0" d="M20.51,18.54L6.27,18.51c-0.89,0-1.61-0.72-1.61-1.61l0.02-9.44c0-0.89,0.73-1.61,1.61-1.61l14.24,0.03
			c0.89,0,1.61,0.73,1.61,1.61l-0.02,9.44C22.13,17.82,21.4,18.54,20.51,18.54z M6.3,6.51c-0.52,0-0.95,0.42-0.95,0.94L5.33,16.9
			c0,0.52,0.42,0.95,0.94,0.95l14.24,0.03c0.52,0,0.95-0.42,0.95-0.94l0.02-9.44c0-0.52-0.42-0.95-0.94-0.95L6.3,6.51z"/>
	</g>
	<g>
		<path class="st0" d="M17.97,7.99h-0.24c-0.18,0-0.33-0.15-0.33-0.33s0.15-0.33,0.33-0.33h0.24c0.18,0,0.33,0.15,0.33,0.33
			C18.31,7.85,18.16,8,17.97,7.99z"/>
	</g>
	<g>
		<path class="st0" d="M19.28,8h-0.24c-0.18,0-0.33-0.15-0.33-0.33s0.15-0.33,0.33-0.33h0.24c0.18,0,0.33,0.15,0.33,0.33
			C19.62,7.85,19.47,8,19.28,8z"/>
	</g>
	<g>
		<path class="st0" d="M20.59,8h-0.24c-0.18,0-0.33-0.15-0.33-0.33s0.15-0.33,0.33-0.33h0.24c0.18,0,0.33,0.15,0.33,0.33
			C20.93,7.85,20.78,8,20.59,8z"/>
	</g>
	<g>
		<path class="st0" d="M8,14.25c-0.09,0-0.19-0.04-0.25-0.12l-1.41-1.64c-0.11-0.13-0.11-0.31,0-0.44l1.42-1.64
			c0.12-0.14,0.33-0.15,0.47-0.03s0.15,0.33,0.03,0.47l-1.23,1.42l1.23,1.42c0.12,0.14,0.1,0.35-0.03,0.47
			C8.15,14.22,8.07,14.25,8,14.25z"/>
	</g>
	<g>
		<path class="st0" d="M18.81,14.27c-0.08,0-0.15-0.03-0.22-0.08c-0.14-0.12-0.15-0.33-0.03-0.47l1.23-1.42l-1.23-1.42
			c-0.12-0.14-0.1-0.35,0.03-0.47c0.14-0.12,0.35-0.1,0.47,0.03l1.41,1.64c0.11,0.13,0.11,0.31,0,0.44l-1.42,1.64
			C18.99,14.23,18.9,14.27,18.81,14.27z"/>
	</g>
	<g>
		<path class="st0" d="M17.03,20.96l-7.27-0.01c-0.18,0-0.33-0.15-0.33-0.33c0-0.83,0.68-1.51,1.51-1.51l4.92,0.01
			c0.83,0,1.51,0.68,1.51,1.51C17.36,20.82,17.21,20.96,17.03,20.96z M10.16,20.29l6.47,0.01c-0.13-0.3-0.43-0.51-0.77-0.51
			l-4.92-0.01C10.59,19.78,10.29,19.99,10.16,20.29z"/>
	</g>
</g>
</svg>
