<?xml version="1.0" encoding="utf-8"?>
<!-- Generator: Adobe Illustrator 25.4.1, SVG Export Plug-In . SVG Version: 6.00 Build 0)  -->
<svg version="1.1" id="Capa_1" xmlns="http://www.w3.org/2000/svg" xmlns:xlink="http://www.w3.org/1999/xlink" x="0px" y="0px"
	 viewBox="0 0 26.81 26.81" style="enable-background:new 0 0 26.81 26.81;" xml:space="preserve">
<style type="text/css">
	.st0{fill-rule:evenodd;clip-rule:evenodd;fill:#FFFFFF;}
</style>
<g>
	<circle cx="13.41" cy="14.19" r="9.78"/>
	<path class="st0" d="M12.02,15.79c-0.78-0.03-1.27-0.59-1.4-1.05c0.22,0.04,0.43,0.03,0.65-0.02c0.01,0,0.01-0.01,0.02-0.01
		c-0.42-0.1-0.75-0.33-0.98-0.69c-0.15-0.24-0.22-0.51-0.22-0.8c0.21,0.11,0.43,0.18,0.67,0.18c-0.32-0.23-0.53-0.53-0.62-0.91
		s-0.03-0.75,0.16-1.09c0.82,0.96,1.85,1.49,3.11,1.57c-0.01-0.06-0.02-0.11-0.02-0.16c-0.04-0.35,0.03-0.68,0.22-0.98
		c0.24-0.38,0.58-0.61,1.02-0.68c0.51-0.08,0.95,0.06,1.32,0.42c0.02,0.02,0.05,0.03,0.08,0.02c0.31-0.07,0.6-0.18,0.88-0.34
		c0.01,0,0.01-0.01,0.02-0.01c0,0,0,0,0.01,0c-0.12,0.35-0.34,0.62-0.64,0.82c0.29-0.03,0.57-0.11,0.84-0.23c0,0,0,0,0.01,0.01
		c-0.06,0.08-0.11,0.15-0.17,0.23c-0.16,0.2-0.34,0.37-0.55,0.52c-0.02,0.01-0.03,0.03-0.02,0.05c0.01,0.22,0,0.45-0.03,0.67
		c-0.06,0.47-0.19,0.91-0.39,1.34c-0.21,0.44-0.48,0.84-0.81,1.19c-0.57,0.59-1.26,0.97-2.07,1.15c-0.28,0.06-0.56,0.09-0.84,0.1
		c-0.87,0.03-1.67-0.19-2.41-0.65c-0.01-0.01-0.02-0.01-0.04-0.02c0.53,0.06,1.03-0.01,1.51-0.21C11.56,16.1,11.8,15.97,12.02,15.79
		z"/>
</g>
</svg>
