<?xml version="1.0" encoding="utf-8"?>
<!-- Generator: Adobe Illustrator 25.4.1, SVG Export Plug-In . SVG Version: 6.00 Build 0)  -->
<svg version="1.1" id="Capa_1" xmlns="http://www.w3.org/2000/svg" xmlns:xlink="http://www.w3.org/1999/xlink" x="0px" y="0px"
	 viewBox="0 0 26.81 26.81" style="enable-background:new 0 0 26.81 26.81;" xml:space="preserve">
<style type="text/css">
	.st0{fill:#010101;}
</style>
<text transform="matrix(1 0 0 1 2612.3594 -627.9688)" style="fill:#636261; font-family:'MyriadStd-Sketch'; font-size:10.5774px;">11-July-2022</text>
<path id="XMLID_00000178197693441033562770000007250832595918736803_" class="st0" d="M8.64,20.5c0,0,2.23,1.05,4.59,1.03
	c0.04,0,0.18,0,0.18,0s0.13,0,0.18,0c2.36,0.02,4.59-1.03,4.59-1.03c1.07,0.17,1.73-0.81,1.73-0.81l-0.29-2.35
	c-0.19-2.13-2.05-2.5-2.42-2.62s-1.72-0.51-1.91-0.96c-0.06-0.15-0.07-0.43-0.05-0.73c0.53-0.67,0.88-1.52,1.07-2.06
	c0.27,0.2,0.38-0.05,0.38-0.05c0.86-1.32,0.33-1.86,0.21-1.96s-0.23,0.07-0.23,0.07l-0.01,0.04c0.16-3.52-2.69-3.77-3.03-3.78
	c0.01,0-0.03,0-0.22,0.01c-0.19-0.01-0.23-0.01-0.22-0.01c-0.33,0.02-3.2,0.25-3.03,3.78l-0.01-0.04c0,0-0.12-0.17-0.23-0.07
	c-0.12,0.1-0.65,0.64,0.21,1.96c0,0,0.11,0.25,0.38,0.05c0.19,0.54,0.53,1.39,1.07,2.06c0.02,0.31,0.02,0.58-0.05,0.73
	c-0.19,0.44-1.53,0.83-1.91,0.96c-0.37,0.12-2.23,0.49-2.42,2.62l-0.29,2.35C6.91,19.69,7.57,20.67,8.64,20.5z"/>
</svg>
