<?xml version="1.0" encoding="utf-8"?>
<!-- Generator: Adobe Illustrator 25.4.1, SVG Export Plug-In . SVG Version: 6.00 Build 0)  -->
<svg version="1.1" id="Capa_1" xmlns="http://www.w3.org/2000/svg" xmlns:xlink="http://www.w3.org/1999/xlink" x="0px" y="0px"
	 viewBox="0 0 26.81 26.81" style="enable-background:new 0 0 26.81 26.81;" xml:space="preserve">
<style type="text/css">
	.st0{fill-rule:evenodd;clip-rule:evenodd;fill:#010101;}
</style>
<g>
	<g>
		<g>
			<path class="st0" d="M20.5,13.22c0,3.82-3.12,6.91-6.97,6.91c-1.22,0-2.37-0.31-3.37-0.86L6.31,20.5l1.26-3.71
				c-0.63-1.04-1-2.26-1-3.57c0-3.82,3.12-6.91,6.97-6.91C17.38,6.31,20.5,9.4,20.5,13.22L20.5,13.22z M13.54,7.41
				c-3.23,0-5.86,2.61-5.86,5.81c0,1.27,0.41,2.45,1.12,3.41l-0.73,2.16l2.25-0.72c0.92,0.61,2.03,0.96,3.22,0.96
				c3.23,0,5.86-2.61,5.86-5.81C19.39,10.02,16.77,7.41,13.54,7.41L13.54,7.41z M17.05,14.82c-0.04-0.07-0.16-0.11-0.33-0.2
				c-0.17-0.08-1.01-0.5-1.17-0.55c-0.16-0.06-0.27-0.08-0.38,0.08c-0.11,0.17-0.44,0.55-0.54,0.66s-0.2,0.13-0.37,0.04
				c-0.17-0.08-0.72-0.26-1.37-0.84c-0.51-0.45-0.85-1-0.95-1.17c-0.1-0.17-0.01-0.26,0.07-0.35c0.08-0.08,0.17-0.2,0.26-0.3
				s0.11-0.17,0.17-0.28s0.03-0.21-0.01-0.3c-0.04-0.08-0.38-0.92-0.53-1.26c-0.14-0.34-0.28-0.33-0.38-0.33s-0.28,0.03-0.28,0.03
				s-0.34,0.04-0.5,0.21s-0.6,0.58-0.6,1.41s0.61,1.64,0.7,1.75s1.18,1.88,2.92,2.56c1.74,0.68,1.74,0.45,2.05,0.42
				c0.31-0.03,1.01-0.41,1.15-0.81C17.1,15.23,17.1,14.89,17.05,14.82L17.05,14.82z"/>
		</g>
	</g>
</g>
</svg>
